<?xml version="1.0" encoding="utf-8"?><svg xmlns="http://www.w3.org/2000/svg" xmlns:xlink="http://www.w3.org/1999/xlink"><symbol fill="none" viewBox="0 0 48 48" id="animals" xmlns="http://www.w3.org/2000/svg"><path fill-rule="evenodd" clip-rule="evenodd" d="M35.8 11.62c2.79 2.88 4.52 6.77 4.52 11.07l-.01-.01c0 4.13-1.6 7.89-4.21 10.74.42 2.58.83 5.9.83 9.03 0 .28-.22.5-.5.5s-.5-.22-.5-.5c0-1.69-.12-3.43-.3-5.09-2.56 1.9-5.55 3.14-8.74 3.61A2.915 2.915 0 0 1 24 43.49c-1.48 0-2.7-1.1-2.89-2.51-3.2-.47-6.21-1.72-8.78-3.64-.16 1.58-.26 3.31-.26 5.12 0 .28-.22.5-.5.5s-.5-.22-.5-.5c0-2.23.16-4.33.37-6.2.12-1.05.26-2.02.4-2.89C9.27 30.53 7.69 27 7.69 22.69s1.73-8.2 4.52-11.08c.14-1.59.6-3.12 1-4.42l.15-.49c.18-.61.69-1.07 1.33-1.19.65-.13 1.31.12 1.72.64l1.33 1.71c1.93-.8 4.04-1.26 6.27-1.26 2.23 0 4.34.46 6.27 1.26l1.32-1.71c.4-.52 1.06-.77 1.72-.64.64.12 1.15.58 1.33 1.19l.15.49c.4 1.3.86 2.83 1 4.43ZM14.31 6.99l-.15.49.01-.02c-.77 2.51-1.71 5.6-.21 8.35.89-1.07 1.76-1.77 2.21-2.1l-.71-2.19c-.09-.26.06-.55.32-.63.27-.09.55.06.63.32l.82 2.55c.07.22-.02.46-.21.58l-.015.01c-.158.106-1.48.99-2.695 2.63-.016.03-.043.05-.073.07l-.027.02a11.093 11.093 0 0 0-2.03 5.66l.46-.23a.503.503 0 0 1 .64.73c-.02.03-1.97 2.97-1.33 6.04l1.04-.76c.17-.12.41-.12.58 0 .18.13.26.34.2.55-.01.03-.4 1.47-.81 3.78 6.2 5.71 15.85 5.73 22.07.05-.314-1.826-.614-3.186-.72-3.664a4.754 4.754 0 0 1-.04-.186c-.05-.2.04-.41.21-.53.17-.12.4-.11.57.01l1.04.76c.64-3.06-1.31-6.01-1.33-6.04a.496.496 0 0 1 .04-.61c.15-.17.4-.22.6-.12l.46.23c-.14-2.05-.84-3.98-2.03-5.66a.595.595 0 0 0-.017-.012l-.015-.01a.304.304 0 0 1-.078-.068c-1.29-1.73-2.7-2.64-2.71-2.64a.508.508 0 0 1-.21-.58l.82-2.55c.09-.26.36-.4.63-.32.26.09.4.37.32.63l-.71 2.19c.46.33 1.32 1.03 2.21 2.1 1.5-2.75.56-5.83-.21-8.35l-.15-.49a.721.721 0 0 0-.56-.49.767.767 0 0 0-.75.28l-4.41 5.69c-.14.18-.37.24-.58.16a8.521 8.521 0 0 0-3.28-.6h-.23c-1.13-.02-2.26.19-3.29.6-.21.08-.45.02-.58-.16l-4.41-5.69a.76.76 0 0 0-.75-.27c-.28.05-.48.23-.56.49Zm8.23 31.11c-3.52-.29-6.97-1.66-9.8-4.08-.11.67-.21 1.39-.3 2.16 2.51 2 5.5 3.3 8.69 3.8.18-.81.71-1.48 1.41-1.88Zm-.47 2.5c0 1.05.86 1.9 1.93 1.9 1.06 0 1.93-.85 1.93-1.9 0-1.05-.87-1.9-1.93-1.9s-1.93.85-1.93 1.9Zm4.79-.632c3.176-.49 6.142-1.77 8.63-3.748-.09-.75-.19-1.47-.3-2.15a17.241 17.241 0 0 1-9.74 4.03c.71.4 1.23 1.07 1.41 1.868ZM20.97 20.64c0 .77-.54 1.39-1.21 1.39-.67 0-1.21-.62-1.21-1.39 0-.77.54-1.39 1.21-1.39.67 0 1.21.62 1.21 1.39Zm7.27 1.39c.67 0 1.21-.62 1.21-1.39 0-.77-.54-1.39-1.21-1.39-.67 0-1.21.62-1.21 1.39 0 .77.54 1.39 1.21 1.39Zm-8.1 10.3c-1.26 0-2.35-.6-2.9-1.68v-.01c-.74-1.45-.29-2.63.15-3.77.29-.75.59-1.53.59-2.46 0-.28.22-.5.5-.5s.5.22.5.5c0 1.12-.34 2.02-.65 2.82l-.002.007c-.41 1.066-.727 1.895-.188 2.953.65 1.26 2.1 1.29 3.15.94.89-.28 1.64-.86 2.03-1.56l.26-.45c0-.01.02-.02.02-.02l.07-.07c.01 0 .02-.02.02-.02-.34-.07-.91-.25-1.47-.76-1.47-1.34-.38-2.55 1.8-2.55s3.27 1.21 1.8 2.55c-.52.47-1.07.69-1.45.79.02.02.04.04.06.07l.02.02.25.44c.4.71 1.15 1.29 2.03 1.56 1.06.35 2.51.32 3.16-.94.53-1.05.21-1.89-.2-2.95-.31-.8-.66-1.71-.66-2.82 0-.28.22-.5.5-.5s.5.22.5.5c0 .93.3 1.71.59 2.46.44 1.14.89 2.32.15 3.77-.56 1.08-1.64 1.68-2.91 1.68-.44 0-.91-.08-1.39-.23-.33 1.08-1.3 1.87-2.47 1.87-1.17 0-2.14-.79-2.47-1.87-.47.15-.94.23-1.39.23Z" fill="currentColor"/></symbol><symbol fill="none" viewBox="0 0 48 48" id="birthday" xmlns="http://www.w3.org/2000/svg"><path fill-rule="evenodd" clip-rule="evenodd" d="M24.74 7.48c0 .19-.16.35-.35.35-.19 0-.35-.16-.35-.35V4.35c0-.19.16-.35.35-.35.19 0 .35.16.35.35v3.13ZM36.83 30.6h.04v-.02c2.01 0 3.64 1.4 3.64 3.11v7.42c0 1.71-1.63 3.11-3.64 3.11H11.66c-2.02 0-3.66-1.4-3.66-3.11v-7.42c0-1.71 1.64-3.11 3.66-3.11h.04v-6.33c0-.06.01-.126.021-.193.008-.046.015-.092.019-.137h-.06l.11-.39.07-.29h.04c.51-1.24 1.87-2.09 3.44-2.09h8.42v-1.89c-.15-.03-.29-.08-.43-.15a3.381 3.381 0 0 1-2.74-3.32c0-1.04.59-1.72 1.28-2.5l.035-.04c.562-.64 1.197-1.364 1.755-2.51.27-.54.69-.51.86-.47 1.19.28 2.84 4.05 2.84 5.52 0 1.47-.94 2.71-2.25 3.18-.19.14-.4.24-.64.29v1.9h8.73c1.55 0 2.91.86 3.43 2.1h.03l.08.28.12.41h-.07c.004.044.011.085.018.126.011.06.022.122.022.194v6.33ZM22.39 13.76c-.67.76-1.11 1.26-1.11 2.04h.01c0 .9.45 1.69 1.13 2.18-.03-.13-.05-.26-.05-.4 0-.93.61-1.62 1.48-2.48.19-.19.44-.24.69-.14.69.29 1.28 1.93 1.28 2.62 0 .03-.005.058-.01.085-.005.027-.01.055-.01.085.52-.49.85-1.18.85-1.95 0-1.12-1.16-3.81-2.01-4.64-.2-.2-.3-.2-.3-.2 0 .004-.004.008-.01.016a.341.341 0 0 0-.05.084c-.61 1.24-1.32 2.05-1.89 2.7Zm-10 10.51v6.33h23.73v-6.55h-.03c-.21.06-.41.15-.59.26l-.09.06c-.17.12-.34.25-.49.4a.647.647 0 0 0-.04.045c-.013.015-.025.03-.04.045-.16.16-.3.33-.44.51-.03.03-.05.06-.07.09-.14.19-.28.38-.42.58l-.021.03c-.775 1.093-1.645 2.32-3.379 2.32-1.737 0-2.617-1.241-3.392-2.335l-.018-.025c-.74-1.05-1.45-2.05-2.82-2.05-1.37 0-2.08 1-2.83 2.06l-.008.012c-.778 1.097-1.658 2.338-3.392 2.338s-2.614-1.241-3.392-2.338l-.008-.012a4.421 4.421 0 0 0-.125-.175 4.421 4.421 0 0 1-.125-.175l-.03-.04a19.503 19.503 0 0 1-.13-.17l-.1-.13c-.015-.02-.03-.038-.045-.055-.015-.018-.03-.035-.045-.055l-.18-.21a.522.522 0 0 0-.05-.055c-.018-.018-.035-.035-.05-.055-.05-.06-.11-.12-.17-.18-.02-.02-.04-.037-.06-.055a1.198 1.198 0 0 1-.06-.055c-.04-.04-.08-.071-.12-.102l-.06-.048a.642.642 0 0 0-.13-.1c-.05-.041-.098-.069-.153-.1l-.037-.02c-.05-.03-.1-.06-.15-.08-.035-.015-.07-.027-.105-.04a1.802 1.802 0 0 1-.105-.04.983.983 0 0 0-.16-.05c-.02-.01-.04-.01-.06-.01-.01.08-.01.16-.01.23Zm-.73 19.27h25.21v.01c1.62 0 2.94-1.08 2.94-2.41v-5.82h-.02c-.17.06-.33.15-.48.26-.01.005-.02.013-.03.02a2.575 2.575 0 0 0-.44.42c-.02.02-.05.05-.07.08-.12.16-.24.32-.36.5-.02.04-.04.07-.06.1-.087.13-.17.262-.253.396L38 37.25l-.002.004c-.68 1.11-1.45 2.366-2.988 2.366-1.532 0-2.302-1.257-2.98-2.363l-.01-.017-.031-.05c-.628-1.022-1.218-1.98-2.349-1.98-1.147 0-1.746.984-2.384 2.03l-.006.01-.003.004c-.679 1.11-1.449 2.366-2.987 2.366-1.528 0-2.288-1.24-2.965-2.345l-.015-.025c-.63-1.05-1.24-2.04-2.38-2.04-1.137 0-1.736.984-2.374 2.03l-.006.01-.015.025c-.677 1.104-1.437 2.345-2.965 2.345-1.538 0-2.308-1.257-2.987-2.366l-.003-.004a45.278 45.278 0 0 1-.096-.153c-.085-.135-.167-.266-.254-.397-.015-.03-.036-.061-.054-.087l-.016-.023a4.413 4.413 0 0 0-.4-.535c-.013-.015-.025-.03-.04-.045-.13-.15-.26-.29-.41-.4-.01-.01-.022-.017-.035-.025-.013-.008-.025-.015-.035-.025-.16-.11-.32-.2-.5-.26H8.7v5.83c0 1.33 1.33 2.41 2.96 2.41Zm17-34.77h.01-.01Zm.005 0a.346.346 0 0 0 .245-.1l1.76-1.76a.35.35 0 0 0 0-.5.338.338 0 0 0-.49 0l-1.76 1.76a.35.35 0 0 0 .245.6Zm-8.325-.01c-.09 0-.18-.03-.25-.1h.01L18.34 6.9a.36.36 0 0 1 0-.5c.13-.14.35-.14.49 0l1.76 1.76a.35.35 0 0 1-.25.6Z" fill="currentColor"/></symbol><symbol fill="none" viewBox="0 0 48 48" id="business" xmlns="http://www.w3.org/2000/svg"><path fill-rule="evenodd" clip-rule="evenodd" d="M42.34 34.17c-.62 0-1.19.24-1.64.64-.19-1.91-1.44-3.48-3.09-3.97v-9.19c1.5-.44 2.8-1.26 3.62-2.37.26-.36.29-.83.06-1.27l-3.65-5.77a.584.584 0 0 0-.13-.14V9.51c0-.83-.67-1.5-1.5-1.5H12c-.83 0-1.5.67-1.5 1.5v2.56c-.07.04-.14.09-.18.16-.12.18-2.9 4.36-3.68 5.81-.22.4-.19.88.08 1.24.83 1.13 2.15 1.96 3.67 2.39v9.26c-1.64.5-2.88 2.04-3.07 3.92a2.5 2.5 0 0 0-1.64-.63c-1.48 0-2.67 1.29-2.67 2.89S4.21 40 5.68 40h5.87c.09 0 .18-.01.26-.02.03 0 .057.005.085.01.027.005.055.01.085.01h24.05c.06 0 .12-.01.18-.02.05 0 .097.005.145.01.047.005.095.01.145.01h5.85c1.47 0 2.66-1.31 2.66-2.92 0-1.61-1.2-2.91-2.66-2.91h-.01ZM11.5 9.5c0-.28.22-.5.5-.5h24c.28 0 .5.22.5.5V12h-25V9.5Zm-3.98 9.18s-.04-.11 0-.17c.614-1.144 2.585-4.148 3.333-5.286L11 13h25.93l3.49 5.51s.05.11 0 .17c-.76 1.02-2.01 1.76-3.45 2.11-.02 0-.04 0-.06.02-.55.13-1.13.2-1.73.2-2.13 0-4.12-.87-5.21-2.26a.523.523 0 0 0-.79 0c-1.08 1.39-3.08 2.26-5.21 2.26s-4.12-.87-5.21-2.26a.523.523 0 0 0-.79 0c-1.09 1.39-3.08 2.26-5.21 2.26-.56 0-1.11-.06-1.64-.17a.481.481 0 0 0-.24-.07h-.01c-1.41-.35-2.62-1.08-3.36-2.08l.01-.01ZM12.77 22c2.23 0 4.28-.81 5.6-2.19 1.33 1.38 3.37 2.19 5.6 2.19 2.23 0 4.28-.81 5.6-2.19 1.33 1.38 3.37 2.19 5.6 2.19.49 0 .97-.05 1.43-.13v16.51c0 .34-.26.62-.59.62h-8.52v-5.9c0-.19-.02-.46-.14-.73-.63-1.44-1.95-2.37-3.36-2.37s-2.73.93-3.36 2.37c-.12.27-.14.55-.14.73V39h-8.53c-.32 0-.59-.28-.59-.62v-16.5c.45.07.91.12 1.38.12h.02Zm8.73 17v-5.9c0-.13.02-.25.06-.33C22.04 31.68 22.97 31 24 31s1.97.68 2.44 1.77c.04.08.06.2.06.33V39h-5Zm-6.84-7.45h3.76c.28 0 .5-.22.5-.5V27.2c0-1.26-1.07-2.28-2.38-2.28-1.31 0-2.38 1.02-2.38 2.28v3.85c0 .28.22.5.5.5Zm.5-4.35c0-.71.62-1.28 1.38-1.28.76 0 1.38.58 1.38 1.28v3.35h-2.76V27.2Zm18.67 3.85c0 .28-.22.5-.5.5h-3.76c-.28 0-.5-.22-.5-.5V27.2c0-1.26 1.07-2.28 2.38-2.28 1.31 0 2.38 1.02 2.38 2.28v3.85Zm-2.38-5.13c-.76 0-1.38.57-1.38 1.28v3.35h2.76V27.2c0-.7-.62-1.28-1.38-1.28Z" fill="currentColor"/></symbol><symbol fill="none" viewBox="0 0 48 48" id="charity" xmlns="http://www.w3.org/2000/svg"><path d="M38.9 38.95s-4.01-3.52-9.11-8.16c2.96-3.44 5.52-6.6 6.92-10.17.38-.97.49-2.02.32-3.03-.29-1.72-1.75-5.77-5.17-8.81-.21-.23-.44-.44-.71-.64-.02-.02-.1-.08-.12-.1-1.36-1.02-3.27-1.68-5.43-1.9.14-1.24-.49-2.5-1.68-3.08a3.054 3.054 0 0 0-4.08 1.4c-.35.72-.39 1.52-.17 2.23-.98.32-1.86.75-2.6 1.28-.07.02-.13.05-.18.09-.01 0-.02.02-.03.03-.07.01-.13.04-.19.08-3.16 2.32-5.07 5.37-5.7 9.07-.17 1.02-.06 2.07.32 3.03 1.23 3.14 3.53 6.7 6.84 10.58-5.2 4.73-8.99 8.07-9.03 8.1a.5.5 0 0 0-.14.55c.07.19.26.32.47.32h4.78c.07 0 .14.03.19.07.03.03.06.07.06.13l-.03 3.71a.495.495 0 0 0 .5.5c.08 0 .17-.02.24-.06.19-.1 4.61-2.55 9.07-6.88 4.25 4.04 8.54 6.83 8.59 6.86a.503.503 0 0 0 .51.02c.16-.09.26-.26.26-.44l-.03-3.71c0-.06.03-.1.06-.13.05-.05.12-.07.19-.07h4.78c.21 0 .39-.13.47-.32.07-.19.02-.42-.14-.55h-.03Zm-2.85-21.2c.14.85.06 1.69-.26 2.5-1.34 3.42-3.84 6.51-6.73 9.87l-.03-.03c-1.45-1.32-2.82-2.58-4.22-4.04 4.06-4.35 6.45-7.97 7.51-11.38.34-1.1.51-2.1.51-3.06 0-.07 0-.17-.01-.19V11.24c1.93 2.37 2.99 5.04 3.24 6.52l-.01-.01Zm-12.5-.15a1.953 1.953 0 1 1-1.75-2.81c.29 0 .58.07.86.2.97.47 1.37 1.64.9 2.61h-.01Zm5.22-4.83a2.054 2.054 0 0 1-2.75.94 2.054 2.054 0 0 1 .91-3.9 2.054 2.054 0 0 1 1.84 2.96ZM20.75 4.9a2.058 2.058 0 0 1 2.75-.94c1.02.5 1.44 1.73.94 2.75a2.054 2.054 0 0 1-2.75.94 2.054 2.054 0 0 1-.94-2.75Zm.5 3.64a3.064 3.064 0 0 0 4.09-1.4v-.03c2.02.18 3.86.79 5.05 1.67.02.02.09.08.11.09.85.65 1.33 1.42 1.33 2.15 0 .52-.07 1.06-.21 1.63-.45-.43-1.02-.82-1.67-1.15-.12-.99-.72-1.91-1.68-2.38-1.39-.68-3.04-.19-3.88 1.07H24c-3.19 0-6.04.95-7.6 2.48-.14-.57-.21-1.11-.21-1.63 0-.17.03-.34.08-.5.05-.14.1-.27.17-.41.02-.03.03-.07.05-.1.09-.16.22-.32.34-.47.04-.05.08-.11.13-.16.02-.02.05-.04.07-.06.16-.16.34-.33.55-.49.67-.51 1.56-.93 2.57-1.24.28.39.65.72 1.11.95l-.01-.02ZM15.11 39.2c-.23-.24-.56-.37-.9-.37h-3.46c1.46-1.29 4.4-3.91 8.03-7.22 1.42 1.63 3 3.31 4.73 5a47.744 47.744 0 0 1-8.08 6.26l.03-2.83c0-.32-.12-.61-.35-.84Zm18.69-.37c-.34 0-.66.13-.9.37-.23.23-.35.53-.35.84l.02 2.76c-1.5-1.04-4.93-3.53-8.22-6.75-1.9-1.85-3.63-3.68-5.15-5.46-3.41-3.94-5.76-7.54-6.98-10.67-.32-.81-.41-1.65-.26-2.5.42-2.5 1.49-4.69 3.18-6.53-.02.14-.03.28-.03.42 0 .97.18 2.02.54 3.13 1.06 3.34 3.77 7.31 8.02 11.8.02.08.05.15.11.21 1.53 1.63 3 2.97 4.57 4.39l.49.45c3.72 3.39 6.87 6.19 8.41 7.55h-3.46l.01-.01Z" fill="currentColor"/></symbol><symbol fill="none" viewBox="0 0 48 48" id="chat" xmlns="http://www.w3.org/2000/svg"><path fill-rule="evenodd" clip-rule="evenodd" d="M44.49 15.01s-1.26-.76-2.74-1.64c-.68-3.67-3.09-7.93-10.64-7.93-6.59 0-10.3 3.19-10.81 9.23-2.81.12-5.58.99-7.58 2.67-1.6 1.34-2.64 3.21-3.23 5.19-.2.68-.35 1.37-.44 2.07-.01.09-.08.81-.08.81L5.9 27.42s-.05.1 0 .13l3.15 2.06c.33 1.43.97 3.08 1.29 3.86-2.81.64-4.98 1.8-5.52 5.25-.04.27.14.53.42.57.27.04.53-.14.57-.42.6-3.829 3.518-4.29 7.565-4.93h.005l.036-.006c2.761-.438 5.867-.932 8.764-2.664.24.37.54 1.02.35 1.75-.23.89-1.27 2.18-4.89 3.29-.17.05-.3.19-.34.37-.04.18.02.36.15.48.05.05 1.38 1.24 3.83 1.59 3.59.51 7.16-1.46 10.02-3.05l.101-.056c1.922-1.06 3.714-2.047 4.579-1.634.31.15.54.51.69 1.07-1.04.61-4.54 2.68-9.1 5.59-.27.17-.54.3-.82.37-5.02 1.4-12.35 1.69-15.44-.3a.5.5 0 0 0-.69.15.5.5 0 0 0 .15.69c1.72 1.11 4.54 1.59 7.59 1.59s6.05-.43 8.66-1.16c.37-.1.73-.27 1.09-.49 5.41-3.46 9.34-5.73 9.38-5.75.18-.11.28-.32.24-.53-.19-.99-.56-1.63-1.12-1.99.41-.4.63-.63.63-.63a.5.5 0 0 0 .14-.35c0-.64-.27-1.16-.77-1.52-.67-.48-1.74-.58-2.75-.25-.44.16-.85.36-1.24.59.05-.21.09-.41.13-.62.2-1.17.32-2.43.33-3.7 5.2-.65 8.38-3.94 8.84-9.25 1.085-.664 2.09-1.321 2.445-1.553l.135-.087c.14-.1.23-.26.22-.43a.54.54 0 0 0-.24-.42l.01-.02ZM26.25 26.03c-1.81 1.54-3.54 2.05-5.05 2.05-3.02 0-5.14-2.04-5.17-2.08-.2-.19-.2-.51 0-.71.19-.2.51-.2.71 0l.003.003c.213.2 4.194 3.954 8.877-.023.21-.18.53-.15.71.06.18.21.15.53-.06.7h-.02Zm7.95 5.4c.69-.23 1.43-.18 1.84.12.18.13.29.3.33.52-.17.17-.46.46-.86.85-1.24 0-2.81.85-4.69 1.9h-.01c.56-.65 1-1.39 1.33-2.19.59-.48 1.29-.92 2.06-1.2Zm6.99-14.65c-.14.08-.23.23-.24.39-.2 2.96-1.55 7.75-7.88 8.57-.08-1.55-.35-3.07-.92-4.42-.92-2.2-2.56-4.09-4.66-5.19-1.79-.94-3.98-1.44-6.2-1.48.5-5.45 3.78-8.22 9.81-8.22 5.62 0 8.88 2.47 9.69 7.33.02.15.11.27.24.35.412.243.81.482 1.174.7.414.248.783.47 1.076.64l-.213.137c-.513.33-1.188.764-1.887 1.183l.01.01Zm-4.82-4.04H26.25c-.28 0-.5.22-.5.5s.22.5.5.5h10.12c.28 0 .5-.22.5-.5s-.22-.5-.5-.5Zm-3.75 3.75h3.69c.28 0 .5.22.5.5s-.22.5-.5.5h-3.69c-.28 0-.5-.22-.5-.5s.22-.5.5-.5Z" fill="currentColor"/></symbol><symbol fill="none" viewBox="0 0 48 47" id="checklist" xmlns="http://www.w3.org/2000/svg"><path fill-rule="evenodd" clip-rule="evenodd" d="M11.04 6c-2.75 0-4.99 2.24-4.99 4.99s2.24 4.99 4.99 4.99 4.99-2.24 4.99-4.99S13.79 6 11.04 6Zm2.6 3.76-3.07 3.05c-.12.12-.27.19-.44.19h-.01a.62.62 0 0 1-.44-.18l-1.16-1.16a.628.628 0 0 1 0-.88c.25-.24.64-.24.88 0l.69.7 2.67-2.63c.25-.24.64-.23.88.02s.23.65-.02.88l.02.01Zm28.86 1.27H22.53c-.28 0-.5-.22-.5-.5s.22-.5.5-.5H42.5c.28 0 .5.22.5.5s-.22.5-.5.5Zm-5.99 11.98H22.53c-.28 0-.5-.22-.5-.5s.22-.5.5-.5h13.98c.28 0 .5.22.5.5s-.22.5-.5.5Zm5.99 10.98H22.53c-.28 0-.5.22-.5.5s.22.5.5.5H42.5c.28 0 .5-.22.5-.5s-.22-.5-.5-.5Zm-36.45 1c0-2.75 2.24-4.99 4.99-4.99s4.99 2.24 4.99 4.99-2.24 4.99-4.99 4.99-4.99-2.24-4.99-4.99Zm1 .01c0 2.2 1.79 3.99 3.99 3.99s3.99-1.79 3.99-3.99-1.79-3.99-3.99-3.99S7.05 32.8 7.05 35Zm-1-12.01c0-2.75 2.24-4.99 4.99-4.99s4.99 2.24 4.99 4.99-2.24 4.99-4.99 4.99-4.99-2.24-4.99-4.99Zm4.51 1.81 3.08-3.06-.01-.01c.25-.23.26-.63.02-.88a.619.619 0 0 0-.88-.02l-2.65 2.63-.7-.71a.628.628 0 0 0-.88 0c-.24.24-.24.63 0 .88l1.14 1.16c.11.12.27.19.44.19.16 0 .32-.06.44-.18Z" fill="currentColor"/></symbol><symbol fill="none" viewBox="0 0 48 48" id="community" xmlns="http://www.w3.org/2000/svg"><path d="M44.53 32.46c-.06-.17-1.46-4.25-5.39-5.79-.04-.02-.08-.02-.13-.02l.02-.13a4.668 4.668 0 0 0 2.23-3.35c.34-2.24-.88-4.32-2.8-4.99C36.34 12.22 30.68 7.95 24 7.95c-6.68 0-12.33 4.27-14.45 10.22-1.93.66-3.16 2.75-2.82 4.99.23 1.46 1.07 2.66 2.2 3.33l.03.16s-.07 0-.1.02c-3.93 1.54-5.33 5.62-5.39 5.79-.09.26.05.54.32.63.26.09.54-.05.63-.31.01-.04 1.21-3.49 4.37-4.99a3.027 3.027 0 0 0 5.48-.4c.52.14 1.03.32 1.49.55-.99 1.6-1.63 3.22-1.82 4.61-.2 1.38.06 2.49.73 3.19.36.37 1 .78 2.06.78.15 0 .3 0 .47-.02 1.83-.19 2.92-1.76 2.71-3.92-.17-1.74-1.18-3.53-2.77-4.9 1.06-1.47 2.43-2.53 4-3.1.69.86 1.72 1.37 2.85 1.38h.02c1.12 0 2.16-.51 2.85-1.38 1.57.56 2.94 1.62 4 3.09-1.57 1.35-2.59 3.16-2.77 4.91-.21 2.16.88 3.73 2.71 3.92 1.36.14 2.12-.34 2.53-.76.67-.7.93-1.8.73-3.18-.19-1.39-.83-3.01-1.82-4.61.48-.23.98-.42 1.49-.55a3.027 3.027 0 0 0 5.48.4c3.16 1.5 4.35 4.95 4.37 4.99.09.26.37.4.63.31.26-.09.4-.37.32-.63v-.01Zm-30.96-7.77c-.5.75-1.24 1.24-2.09 1.37-1.77.28-3.45-1.09-3.75-3.04-.3-1.95.89-3.76 2.66-4.03.85-.13 1.7.11 2.41.67.72.58 1.19 1.42 1.34 2.37.15.95-.05 1.9-.56 2.66h-.01Zm5.36 7.98c.12 1.27-.29 2.67-1.82 2.83-.76.08-1.34-.08-1.7-.46-.45-.46-.61-1.3-.46-2.35.17-1.25.75-2.72 1.66-4.19 1.32 1.17 2.18 2.7 2.33 4.17h-.01Zm5.17-9.83c-2.13 0-3.86-1.91-3.86-4.25s1.73-4.25 3.86-4.25 3.86 1.91 3.86 4.25-1.73 4.25-3.86 4.25Zm8.99 9.85c.15 1.05-.01 1.89-.46 2.35-.37.38-.94.54-1.71.46-1.53-.16-1.94-1.57-1.82-2.83.15-1.48 1.02-3.02 2.33-4.17.91 1.47 1.49 2.94 1.66 4.19Zm3.46-6.63c-.85-.13-1.59-.62-2.09-1.37-.51-.77-.71-1.71-.56-2.66.15-.95.62-1.79 1.34-2.37.58-.46 1.26-.71 1.95-.71.15 0 .3.01.45.03 1.77.27 2.96 2.08 2.66 4.03-.3 1.95-1.97 3.32-3.75 3.04v.01Z" fill="currentColor"/></symbol><symbol fill="none" viewBox="0 0 48 48" id="competitions" xmlns="http://www.w3.org/2000/svg"><path d="M37.48 10.19c.05-.19-.02-.4-.18-.52C33.06 6.44 28.96 5 24 5c-4.96 0-9.06 1.44-13.3 4.67-.16.12-.23.33-.18.52 0 .02-.01.03-.01.05V14c0 1.08.46 2.11 1.27 2.9l5.57 5.66c-3.4 2.47-5.17 6.6-4.53 10.83a11.26 11.26 0 0 0 4.47 7.42c1.96 1.45 4.29 2.21 6.69 2.21.57 0 1.14-.04 1.71-.13 6.17-.93 10.43-6.71 9.5-12.87-.47-3.15-2.22-5.81-4.65-7.53l5.67-5.58c.83-.77 1.29-1.8 1.29-2.9v-3.75s-.01-.03-.01-.04l-.01-.03ZM24 6c4.57 0 8.39 1.3 12.31 4.19l-2.36 2.19a.526.526 0 0 0-.18-.28C30.78 9.93 27.32 8.74 24 8.74c-3.32 0-6.78 1.19-9.77 3.36-.12.09-.18.21-.2.35l-2.35-2.25C15.6 7.31 19.42 6.01 24 6.01V6Zm-1.55 14.49-7.85-7.51c.08-.01.15-.04.22-.08 2.82-2.04 6.08-3.17 9.18-3.17 3.1 0 6.36 1.13 9.18 3.17.04.03.1.03.15.05l-8.08 7.48c-.73-.08-1.47-.09-2.22-.02-.14 0-.27.03-.4.05l-.16.03h-.02Zm-9.97-4.32c-.63-.6-.98-1.38-.98-2.18v-2.58l14.71 14.08c-.49.28-1.24.6-2.21.6-.46 0-1.65-.09-2.64-.88l-8.88-9.03v-.01Zm14.74 15.22a.557.557 0 0 1 0 1.1 3.365 3.365 0 0 0-2.7 2.7.557.557 0 0 1-1.1 0 3.365 3.365 0 0 0-2.7-2.7.557.557 0 0 1 0-1.1 3.365 3.365 0 0 0 2.7-2.7.557.557 0 0 1 1.1 0 3.365 3.365 0 0 0 2.7 2.7Zm6.98-1.24c.85 5.62-3.04 10.89-8.66 11.73-2.73.41-5.45-.26-7.66-1.9a10.257 10.257 0 0 1-4.07-6.76c-.59-3.9 1.07-7.72 4.25-9.96l1.14 1.16-.34.22a8.701 8.701 0 0 0-3.31 9.17c1.13 4.53 5.65 7.33 10.18 6.41l.39-.09a8.633 8.633 0 0 0 5.35-3.98 8.64 8.64 0 0 0 .97-6.59c-.89-3.56-3.88-6.08-7.35-6.53l-1.71-1.64c5.31-.32 10.01 3.46 10.81 8.75l.01.01Zm2.3-16.16c0 .82-.34 1.59-.98 2.18l-5.84 5.74c-.99-.58-2.06-1.01-3.2-1.26l10.02-9.27v2.61Z" fill="currentColor"/></symbol><symbol fill="none" viewBox="0 0 48 48" id="creative" xmlns="http://www.w3.org/2000/svg"><path fill-rule="evenodd" clip-rule="evenodd" d="M39.67 6.63c1.05-.49 2.29-.03 2.78 1.02v.01a2.088 2.088 0 0 1-1.9 2.97c-.25 0-.49-.04-.73-.13-.53-.19-.95-.58-1.18-1.09-.23-.51-.25-1.08-.06-1.6.2-.53.58-.95 1.09-1.18ZM28.04 39.21c-1.14.29-2.32.46-3.5.5-1.51.05-3.02-.12-4.5-.5a.498.498 0 0 0-.61.36c-.07.27.09.54.36.61 1.39.36 2.82.54 4.25.54h.53c1.25-.04 2.5-.22 3.72-.53.27-.07.43-.34.36-.61a.498.498 0 0 0-.61-.36v-.01Zm-1.67 3.03c-.67.28-1.35.44-2.03.48-.88.04-1.75-.12-2.61-.48a.503.503 0 0 0-.66.27c-.11.25.01.55.27.65.89.37 1.79.56 2.71.56h.34c.8-.04 1.59-.23 2.37-.55.25-.11.37-.4.27-.66a.508.508 0 0 0-.66-.27ZM9.12 16.71a2.298 2.298 0 0 0 1.12-3.03 2.295 2.295 0 0 0-3.03-1.12 2.298 2.298 0 0 0-1.12 3.03 2.3 2.3 0 0 0 2.08 1.33c.32 0 .64-.07.95-.21Zm27.55-6.06c0 .63-.17 1.21-.44 1.73v.02c2.8.28 4.98 2.64 4.98 5.51 0 3.05-2.47 5.53-5.53 5.53-.25 0-.49-.03-.73-.06-.35 1-.84 1.95-1.45 2.82 1.22.66 2.06 1.93 2.06 3.41 0 2.15-1.75 3.9-3.9 3.9-.78 0-1.5-.24-2.11-.64-.3.82-.53 1.63-.7 2.46l-.28 1.42c-.04.19-.18.34-.37.39-1.18.31-2.4.48-3.62.52h-.52c-1.39 0-2.78-.18-4.14-.53a.508.508 0 0 1-.37-.39l-.37-1.87c-.15-.71-.34-1.4-.58-2.09-.84.56-1.84.9-2.93.9-2.93 0-5.3-2.37-5.3-5.3 0-.3.04-.59.09-.88a4.208 4.208 0 0 1-2.34-3.76 4.22 4.22 0 0 1 4.22-4.22c.03 0 .06.002.09.005.03.002.06.005.09.005a11.337 11.337 0 0 1 1.8-6.15c-.58-.66-.96-1.51-.96-2.47 0-2.09 1.69-3.78 3.78-3.78 1.27 0 2.37.63 3.06 1.58 1.07-.38 2.21-.61 3.39-.66 2.04-.09 4.02.37 5.79 1.29.53-1.44 1.89-2.47 3.51-2.47 2.09 0 3.78 1.69 3.78 3.78ZM23.62 9.04c-5.15.2-9.57 4.37-10.06 9.49h.01c-.27 2.85.58 5.62 2.41 7.79a20.46 20.46 0 0 1 3 4.72c1.75-2.77 2.44-5.2 2.53-7.07-2.06-.54-3.34-1.7-3.59-2.81-.19-.84.21-1.59 1.07-1.99.84-.4 1.75-.16 2.43.64.58.67 1.02 1.82 1.09 3.34.45.07.93.12 1.45.12.52 0 1.01-.05 1.45-.12.07-1.52.52-2.67 1.09-3.34.68-.8 1.59-1.04 2.43-.64.86.4 1.26 1.15 1.07 1.99-.25 1.11-1.53 2.27-3.59 2.81.09 1.93.83 4.45 2.69 7.32.77-1.75 1.82-3.46 3.16-5.11.95-1.18 1.63-2.51 2-3.93l.004-.026c.009-.064.019-.134.036-.204.01-.07.03-.15.05-.22.15-.73.24-1.47.24-2.23 0-2.9-1.15-5.59-3.24-7.6-2.09-2-4.83-3.03-7.73-2.93Zm3.63 11.43c-.42.49-.75 1.33-.84 2.46h.01c1.57-.47 2.45-1.33 2.6-1.98.03-.14.12-.57-.52-.87a.996.996 0 0 0-.39-.09c-.36 0-.66.24-.86.48Zm-8.36.48c.15.65 1.03 1.51 2.6 1.98h.01c-.09-1.13-.42-1.97-.84-2.46-.21-.24-.5-.48-.86-.48-.13 0-.25.03-.39.09-.641.306-.552.719-.521.864l.001.006Zm8.75 15.27.22-1.11h-.01c.18-.91.45-1.82.78-2.71a.08.08 0 0 0-.025-.025.08.08 0 0 1-.025-.025c-2.18-3.17-3.05-5.98-3.18-8.18-.41.06-.84.11-1.3.11h-.3c-.45-.01-.89-.05-1.3-.11-.13 2.16-.98 4.9-3.06 8 .31.82.55 1.65.72 2.49l.31 1.56c1.33.31 2.7.46 4.07.41a15.5 15.5 0 0 0 3.1-.41Z" fill="currentColor"/></symbol><symbol fill="none" viewBox="0 0 48 48" id="donation" xmlns="http://www.w3.org/2000/svg"><path d="M42.61 12.92c-2.81.05-6.01 2.18-8.83 4.05-1.27.84-2.47 1.64-3.49 2.15-.68.34-1.17.49-1.54.53a1.494 1.494 0 0 1-1.13-.95c.05-.28.25-.65.77-1.17.52-.51 1.23-1.05 1.92-1.58 1.53-1.16 2.98-2.25 3.06-3.5.04-.52-.17-1-.6-1.43-.53-.53-1.11-.78-1.8-.76-1.73.06-3.59 2.03-5.83 4.59-.07.08-.14.14-.2.21-.05 0-.1-.02-.15-.03-.34-.03-.69-.06-1.04-.06-.85 0-1.67.12-2.44.34l2.45-3.94s1.65-3.21 5.3-4.96c6.69-3.02 13.3-.26 13.36-.23.26.11.55 0 .66-.26.11-.25 0-.55-.26-.66-.29-.12-7.07-2.97-14.18.24-3.98 1.91-5.7 5.28-5.75 5.38l-3.11 5.01a9.117 9.117 0 0 0-5.17 8.23c0 2.56 1.05 4.85 2.74 6.51-.91.15-1.81.26-2.69.36-4.13.48-8.04.94-8.77 5.9-.04.27.15.53.42.57.27.05.53-.15.57-.42.62-4.2 3.68-4.56 7.9-5.05 1.6-.19 3.25-.38 4.94-.81 1.76-.44 3.27-1.09 4.6-1.96.31.53.72 1.58.07 2.72-.68 1.17-2.28 2.2-4.74 3.05-.16.06-.29.19-.32.36-.03.17.01.34.13.46.06.06 1.4 1.37 3.89 1.74 3.62.55 6.95-1.61 9.63-3.34 1.98-1.27 3.68-2.37 4.8-2.01.48.16.88.59 1.21 1.34-.94.85-4.4 3.94-9.27 7.39-5.19 1.74-12.51 1.29-15.71-.97a.5.5 0 0 0-.7.12c-.16.23-.11.54.12.7 2.03 1.43 5.58 2.19 9.28 2.19 2.55 0 5.17-.36 7.4-1.12.04-.02.09-.04.13-.07 5.8-4.11 9.66-7.72 9.69-7.75.15-.14.2-.35.12-.54-.47-1.23-1.12-1.96-1.96-2.24-1.58-.51-3.47.71-5.66 2.12-2.67 1.72-5.7 3.67-8.94 3.19-1.2-.18-2.09-.61-2.65-.96 1.72-.68 2.99-1.48 3.81-2.38 4.63-.46 8.25-4.35 8.25-9.1 0-1.69-.48-3.25-1.27-4.6.84-.49 1.75-1.09 2.7-1.72 2.71-1.8 5.77-3.84 8.29-3.88.28 0 .5-.23.49-.51 0-.28-.24-.46-.51-.49h.01Zm-11.6-1.66c.4-.03.72.14 1.06.47.29.29.31.51.3.65-.05.8-1.44 1.85-2.67 2.78-.46.35-.93.71-1.35 1.07-.7-.41-1.46-.72-2.26-.93 1.93-2.2 3.64-3.99 4.92-4.03v-.01Zm-4.22 13.75c-1.52 1.72-3.06 2.52-3.07 2.52 0 0-1.54-.8-3.07-2.52-.84-.95-1.3-2.59-.39-3.66.5-.59 1.3-.82 2-.53.67.28 1.16.93 1.46 1.6.3-.67.79-1.33 1.46-1.6.7-.29 1.5-.06 2 .53.91 1.07.45 2.71-.39 3.66Z" fill="currentColor"/></symbol><symbol fill="none" viewBox="0 0 48 48" id="education" xmlns="http://www.w3.org/2000/svg"><path d="M44.54 29.06c.41-.12.69-.46.69-.85 0-.39-.28-.74-.7-.85l-10.49-2.77c-.49-2.6-1.7-4.9-3.45-6.58l10.97-3.58c.41-.13.67-.5.67-.93 0-.43-.26-.79-.67-.92L24.62 7.05a.883.883 0 0 0-.6 0L7.08 12.58c-.41.13-.67.5-.67.92 0 .43.26.79.67.93l7.08 2.31c-.46.42-1.06.99-1.67 1.64-.03-.02-.06-.06-.09-.08-.95-.6-2.17-.37-2.77.54-1.41 2.11-3.24 3.65-3.26 3.67-.13.11-.19.27-.18.43.02.16.11.31.25.39l4.14 2.31c.08.04.16.06.24.06.13 0 .27-.05.36-.16.65-.69 2.01-2.92 2.3-4.73.1-.59-.05-1.18-.33-1.68.83-.88 1.64-1.63 2.1-2.03l2.8.91c-1.97 1.89-3.27 4.6-3.61 7.61l-9.48 2.93s-.06.05-.1.07c-.07.02-.13.06-.19.11-.64.6-1.27 1.58-1.44 2.22-.32 1.17 0 2.25.21 2.79.2.48.63.85 1.2 1.01l6.21 1.66c-.04.11-.08.23-.11.34-.37 1.4-.38 2.72-.38 2.77 0 .15.07.29.18.39.12.1.27.13.42.1l2.81-.59 2.72 2.45c.09.08.21.13.33.13.06 0 .13-.01.19-.04.18-.07.3-.24.31-.43 0-.01.11-1.36.54-2.69.05-.14.1-.28.16-.42l6.04 1.71c.06.03.13.05.2.05.02 0 .03 0 .05-.01h.02c.1 0 .2-.02.31-.05l19.66-6.38a.5.5 0 0 0 .45-.5c0-.28-.22-.5-.5-.5h-.86v-3.35l1.12-.33h.03Zm-32.05-8.41c-.23 1.4-1.22 3.12-1.8 3.91L7.53 22.8c.68-.64 1.89-1.86 2.92-3.4.35-.52.98-.52 1.41-.25.47.3.74.92.64 1.51l-.01-.01Zm7.29 15.77s.09-.03.13-.05l3.88 1.11v1.54l-5.32-1.5c.31-.51.74-.99 1.31-1.09v-.01ZM24.32 8l16.93 5.48-16.92 5.53-7.85-2.54 7.24-2.71s.04-.03.06-.04c.17.03.35.05.54.05 1.04 0 1.89-.45 1.89-1.01s-.85-1.01-1.89-1.01-1.89.45-1.89 1.01c0 .13.05.25.13.37l-7.4 2.77c-.06.02-.11.05-.15.09H15l-7.62-2.45 16.93-5.53.01-.01Zm-5.18 10.36 4.88 1.59c.1.03.2.05.3.05.1 0 .2-.02.3-.05l4.88-1.59c1.89 1.61 3.17 3.99 3.62 6.72.06.31.1.63.12.95.04.46-.19.91-.52 1.01l-3.82 1.28c-3.08 1.02-6.33 1-9.41-.04l-3.59-1.23c-.34-.11-.55-.54-.51-1.02.28-3.09 1.64-5.88 3.75-7.67ZM4.39 33.35c-.17-.42-.41-1.26-.17-2.15.1-.36.45-.94.83-1.4.03-.02.06-.05.08-.07l.13-.15 18.54 5.24v1.61L7.51 31.79a.501.501 0 0 0-.28.96l4.92 1.4c-.36.35-.66.79-.91 1.32l-6.31-1.69c-.26-.08-.47-.24-.55-.43h.01Zm12.55 5.19c-.23.71-.37 1.41-.46 1.95l-2.2-1.98a.504.504 0 0 0-.44-.12l-2.43.51c.04-.48.12-1.18.31-1.89.05-.17.11-.35.2-.59.01-.05.03-.1.07-.19.33-.85.79-1.43 1.34-1.73l5.18 1.48c-.45.35-.84.86-1.16 1.53-.03.04-.05.08-.07.13 0 .01-.01.02-.02.03v.02c-.01.04 0 .09 0 .13h-.05c-.1.23-.19.48-.27.72Zm7.86.48v-1.49l17.63-5.54v1.32L24.8 39.02Zm17.63-8.09L24.8 36.47v-1.61l17.63-5.18v1.25Z" fill="currentColor"/></symbol><symbol fill="none" viewBox="0 0 48 48" id="emergencies" xmlns="http://www.w3.org/2000/svg"><path d="M36.02 13.3c.16-.02.32-.05.47-.11.54-.2.98-.61 1.22-1.13.47-1.02.32-2.96-.11-4.13a.492.492 0 0 0-.64-.29c-1.17.43-2.73 1.59-3.2 2.61-.1.22-.15.44-.18.67-1.06-.83-2.24-1.5-3.5-2.03.23-1.07.07-2.58-.29-3.55a.495.495 0 0 0-.64-.29c-1.17.43-2.73 1.59-3.2 2.61-.02.04-.03.08-.04.12-.63-.08-1.26-.13-1.91-.13-8 0-14.64 5.98-15.46 14.01a.5.5 0 0 0 .99.15c.24-1.21 2.4-2.27 4.64-2.27 2.24 0 3.97.73 4.19 1.86.04.24.25.41.49.41s.45-.17.49-.41c.19-.99 1.94-1.74 4.16-1.84v5.98c-1.75.53-2.52 2.6-3.14 4.31-.36.98-.8 2.21-1.22 2.21-.04 0-.09 0-.13.02l-9.73 2.65c-.27.07-.42.35-.35.61.07.27.35.43.61.35l9.68-2.64c1.07-.06 1.54-1.36 2.09-2.86.52-1.44 1.11-3.05 2.21-3.6V30c0 .08.03.15.06.22.01.02.03.04.04.06.03.05.07.09.12.12.01 0 .02.03.04.03h.02c.07.03.14.05.22.05.02 0 .03 0 .05-.01.06 0 .12-.03.18-.06.01 0 .02 0 .03-.01.38-.24 1.6-.84 2.22-.46.46.29.62 1.19.46 2.53-.4 3.3-2.84 3.54-2.97 3.55-2.26.32-4.53.77-6.74 1.34-2.73.7-5.43 1.6-8.03 2.68-.26.11-.38.4-.27.65.08.19.27.31.46.31.06 0 .13-.01.19-.04 2.56-1.06 5.22-1.94 7.9-2.63 1.82-.47 3.68-.84 5.53-1.13a3.625 3.625 0 0 0 3.64 3.42c1.95 0 3.65-1.64 3.65-3.65 0-.55-.45-1-1-1s-1 .45-1 1c0 .91-.74 1.65-1.65 1.65-.91 0-1.63-.71-1.65-1.6 0-.07-.03-.14-.05-.21 1.03-.38 2.65-1.41 2.99-4.21.22-1.8-.09-2.98-.92-3.5-.8-.5-1.82-.24-2.52.06v-9.62c2.23.1 3.98.86 4.17 1.85.04.24.25.41.49.41s.45-.17.49-.41c.21-1.14 1.86-1.87 4.19-1.87s4.41 1.07 4.64 2.29c.04.24.25.41.49.41h.07c.26-.04.45-.27.43-.54-.3-3.19-1.55-6.06-3.44-8.37l-.03-.01Zm-9.17-5.24c.27-.58 1.23-1.4 2.15-1.87.25 1.01.25 2.27-.01 2.86-.27.59-.97.85-1.56.58-.29-.13-.5-.37-.61-.66-.11-.29-.1-.62.03-.9v-.01Zm3.72 7.31c-.32.69-1.13.99-1.81.67-.69-.31-.99-1.13-.67-1.81.32-.68 1.48-1.58 2.38-1.92.34.91.42 2.37.1 3.06Zm4.67-3.15c-.29-.13-.5-.37-.61-.66-.11-.29-.1-.61.03-.9.27-.58 1.23-1.4 2.15-1.87.25 1.01.25 2.27-.01 2.86-.13.29-.37.5-.66.61-.29.11-.61.1-.9-.03v-.01Z" fill="currentColor"/></symbol><symbol fill="none" viewBox="0 0 48 48" id="events" xmlns="http://www.w3.org/2000/svg"><path fill-rule="evenodd" clip-rule="evenodd" d="M39 7.96h-4.44v-2.4c0-.28-.22-.5-.5-.5s-.5.22-.5.5v2.4H14.49v-2.4c0-.28-.22-.5-.5-.5s-.5.22-.5.5v2.4H9c-.83 0-1.5.67-1.5 1.5v29.98c0 .83.67 1.5 1.5 1.5h30c.83 0 1.5-.67 1.5-1.5V9.46c0-.83-.67-1.5-1.5-1.5Zm.5 31.48c0 .28-.22.5-.5.5H9c-.28 0-.5-.22-.5-.5V13.96h31v25.48ZM18.49 18h11.02c.28 0 .5-.22.5-.5s-.22-.5-.5-.5H18.49c-.28 0-.5.22-.5.5s.22.5.5.5Zm9.96 8.26c-.22-.07-.42-.36-.4-.59h-.01c.02-.27.22-.48.49-.52l1.9-.25c.85-.11 1.55-.73 1.8-1.57l.55-1.88c.07-.23.37-.41.59-.41.27.03.49.23.52.5l.25 1.95c.11.87.71 1.6 1.53 1.85l1.84.56c.23.07.42.36.4.6-.03.27-.23.48-.5.51l-1.89.25c-.85.11-1.55.73-1.8 1.57l-.55 1.88c-.07.22-.33.41-.56.41h-.03a.575.575 0 0 1-.52-.5l-.25-1.95c-.11-.87-.71-1.6-1.53-1.85l-1.83-.56Zm6.87.01c-1.13-.36-1.97-1.35-2.16-2.55a3.2 3.2 0 0 1-2.53 2.16c1.13.37 1.97 1.36 2.16 2.55a3.2 3.2 0 0 1 2.53-2.16ZM25 23h-2c-.83 0-1.5.67-1.5 1.5v2c0 .83.67 1.5 1.5 1.5h2c.83 0 1.5-.67 1.5-1.5v-2c0-.83-.67-1.5-1.5-1.5Zm.5 3.5c0 .28-.22.5-.5.5h-2c-.28 0-.5-.22-.5-.5v-2c0-.28.22-.5.5-.5h2c.28 0 .5.22.5.5v2ZM17 28h-2c-.83 0-1.5-.67-1.5-1.5v-2c0-.83.67-1.5 1.5-1.5h2c.83 0 1.5.67 1.5 1.5v2c0 .83-.67 1.5-1.5 1.5Zm-2-4c-.28 0-.5.22-.5.5v2c0 .28.22.5.5.5h2c.28 0 .5-.22.5-.5v-2c0-.28-.22-.5-.5-.5h-2Z" fill="currentColor"/></symbol><symbol fill="none" viewBox="0 0 48 48" id="faith" xmlns="http://www.w3.org/2000/svg"><path fill-rule="evenodd" clip-rule="evenodd" d="M24.46 9.98c0 .27-.22.5-.5.5-.27 0-.5-.22-.5-.5l-.03-5.48c0-.27.22-.5.5-.5.27 0 .5.22.5.5l.03 5.48Zm16.86 21.08c1.55.09 3.01.74 4.14 1.86h-.01c1.31 1.3 2.04 3.06 2.04 4.95v.63c0 .28-.22.5-.5.5H19.6c-.55 0-1.05-.29-1.3-.75-.54-.99-.81-2.07-.81-3.21 0-.35.04-.7.09-1.04H.99c-.28 0-.5-.22-.5-.5v-.52c0-3.01 2.18-5.47 4.93-5.68.67-4.19 4.06-7.3 8.05-7.3 1.07 0 2.09.22 3.05.64-.02-.21-.03-.42-.03-.64 0-4.14 3.36-7.5 7.5-7.5 4.14 0 7.5 3.36 7.5 7.5 0 .77-.12 1.51-.34 2.21h.14c3.19 0 6.13 1.51 8.06 4.14 1.02 1.39 1.7 3.01 1.97 4.71Zm-23.506 1.958A.376.376 0 0 0 17.72 33H1.5v-.02c0-2.59 1.93-4.7 4.35-4.7.9 0 1.77.33 2.5.93.21.17.53.14.7-.07.17-.21.14-.53-.07-.7-.74-.6-1.62-.97-2.55-1.09.64-3.65 3.59-6.34 7.05-6.34 1.12 0 2.19.27 3.17.8l.09.06c.24.12.5.28.78.49.34.26.6.49.83.73.13.13.33.19.5.13.47-.14.96-.21 1.54-.21 1.56 0 3.08.67 4.22 1.82-.66.59-1.24 1.26-1.72 2-.39.59-.73 1.24-1.01 1.96-.58.19-1.14.47-1.67.85-1.146.828-1.975 2.023-2.396 3.378ZM19.61 38H46.5l.01.02v-.13c0-1.62-.62-3.13-1.75-4.24a5.414 5.414 0 0 0-3.86-1.58c-1.15.01-2.27.42-3.23 1.16-.1.08-.2.11-.31.11a.497.497 0 0 1-.31-.89c.97-.76 2.08-1.19 3.25-1.32-.26-1.5-.84-2.93-1.75-4.16-1.74-2.38-4.38-3.74-7.25-3.74h-.15c-.118 0-.223.006-.319.011a4.159 4.159 0 0 1-.23.009 8.81 8.81 0 0 0-3.39.97c-.58.3-1.16.69-1.7 1.15-.69.58-1.28 1.25-1.77 2.01-.4.59-.73 1.26-1 1.99-.05.15-.18.27-.33.31-.57.15-1.11.41-1.61.77-1.44 1.03-2.3 2.75-2.3 4.59 0 .97.23 1.9.69 2.74.07.13.24.22.42.22ZM29.9 12.33c.16 0 .31-.07.41-.21l1.56-2.2c.16-.23.11-.54-.12-.7a.499.499 0 0 0-.7.12l-1.56 2.2a.499.499 0 0 0 .41.79ZM33.485 17h-.005.01-.005Zm.115-.01a.642.642 0 0 1-.115.01.493.493 0 0 1-.485-.38.49.49 0 0 1 .37-.6l4.46-1.06c.27-.07.54.1.6.37.07.27-.1.54-.37.6l-4.46 1.06Zm-15.51-5.03c.1.14.25.22.42.22.1 0 .19-.03.28-.08a.5.5 0 0 0 .14-.69l-1.51-2.24a.5.5 0 0 0-.69-.14.5.5 0 0 0-.14.69l1.51 2.24h-.01Zm-3.32 4.49L9.91 14.9a.51.51 0 0 1-.32-.63c.09-.27.36-.41.63-.33l4.86 1.55c.26.09.4.37.32.63-.07.21-.27.35-.48.35-.05 0-.1 0-.15-.02Z" fill="currentColor"/></symbol><symbol fill="none" viewBox="0 0 48 48" id="family" xmlns="http://www.w3.org/2000/svg"><path fill-rule="evenodd" clip-rule="evenodd" d="M26.32 6.44c1.3-.51 2.78-.1 3.71.93h-.02c1.69 1.88.84 4.75-.72 6.41-2.82 3.01-5.67 4.42-5.69 4.42l-.025-.013c-.287-.15-2.985-1.556-5.665-4.407-1.55-1.66-2.41-4.53-.72-6.41.93-1.03 2.41-1.44 3.71-.93 1.25.49 2.15 1.63 2.71 2.81.56-1.18 1.47-2.32 2.71-2.81Zm10.5 17.27c-.2 0-.39-.02-.59-.05-2.23-.34-3.74-2.58-3.37-4.98.18-1.16.76-2.18 1.64-2.89.89-.72 1.98-1.02 3.07-.85 1.09.17 2.04.78 2.67 1.74.63.94.87 2.09.69 3.25-.18 1.16-.76 2.18-1.64 2.89-.73.59-1.6.9-2.48.9l.01-.01Zm.17-7.81c-.66 0-1.31.23-1.86.68-.68.55-1.14 1.35-1.28 2.26-.29 1.86.85 3.58 2.53 3.84.81.12 1.62-.1 2.29-.64.68-.55 1.14-1.35 1.28-2.26.14-.91-.05-1.81-.54-2.54-.48-.72-1.19-1.18-1.99-1.3-.14-.02-.29-.03-.43-.03v-.01Zm-25.87 9.95c-.87 0-1.72-.3-2.45-.86a4.538 4.538 0 0 1-1.68-2.87c-.4-2.4 1.08-4.66 3.31-5.03 1.08-.18 2.18.11 3.08.81.89.69 1.49 1.71 1.68 2.87.4 2.4-1.08 4.66-3.31 5.03a3.43 3.43 0 0 1-.63.05Zm-3.14-3.9c.15.91.62 1.71 1.31 2.25.68.53 1.5.75 2.3.61 1.68-.28 2.8-2.02 2.48-3.88-.15-.91-.62-1.71-1.31-2.25-.68-.53-1.5-.75-2.3-.61-1.68.28-2.8 2.02-2.48 3.88Zm9.72 18.67c-.89 0-1.43-.35-1.73-.67-.57-.59-.78-1.51-.61-2.67.17-1.25.79-2.73 1.73-4.15.25-.38.51-.73.8-1.05-1.04-2.05-2.55-3.72-4.35-4.26l-1.36 3.22c-.07.17-.23.28-.41.3a.51.51 0 0 1-.46-.21l-2.15-3.12c-1.36.31-2.43 1.03-3.17 2.15-2.207 3.315-1.011 9.078-.934 9.451l.004.019a.503.503 0 0 1-.98.22c-.06-.26-1.43-6.48 1.07-10.24.96-1.44 2.35-2.33 4.15-2.64.2-.03.39.05.5.21l1.82 2.64 1.17-2.78c.09-.22.33-.34.56-.3 2.22.44 4.05 2.27 5.3 4.59.78-.68 1.68-1.18 2.66-1.48.21-.07.45.02.57.21.39.6 1.04.96 1.75.96s1.37-.36 1.74-.96c.12-.19.36-.28.57-.21.7.22 1.36.54 1.96.95 1.09-2.78 2.98-4.55 5.9-5.56.25-.09.54.04.63.3.29.8 1.07 1.34 1.93 1.34.86 0 1.64-.54 1.93-1.34.09-.24.35-.38.6-.31 6.7 1.82 3.79 14.1 3.66 14.62-.07.27-.34.43-.6.37a.506.506 0 0 1-.37-.6c.03-.12 2.68-11.3-2.56-13.29a3.072 3.072 0 0 1-5.33.01c-2.47.96-4.06 2.59-4.98 5.11a8.62 8.62 0 0 1 1.43 1.67c.94 1.41 1.56 2.89 1.73 4.15.17 1.15-.04 2.07-.61 2.66-.35.36-1 .77-2.13.64-2.31-.23-2.29-2.5-2.28-3.24 0-1.75.26-3.75.72-5.54-.49-.37-1.03-.67-1.6-.88-.58.69-1.43 1.1-2.35 1.1-.92 0-1.77-.4-2.35-1.1-.89.33-1.6.82-2.16 1.35.71 1.6 1.17 3.36 1.3 5.03.17 1.8-.76 3.12-2.3 3.28l-.028.002c-.13.01-.25.018-.372.018l-.01.03Zm.22-6.93a9.82 9.82 0 0 1 .42-.577c.564 1.384.93 2.885 1.04 4.287.09.99-.23 2.08-1.4 2.2-.58.06-1.02-.05-1.3-.34-.34-.35-.46-1-.34-1.83.16-1.12.71-2.44 1.58-3.74Zm10.49-1.13c-.37 1.58-.57 3.29-.57 4.8-.01 1.85.66 2.17 1.39 2.24.59.06 1.03-.05 1.31-.34.34-.36.46-1.01.34-1.83-.15-1.12-.71-2.44-1.57-3.74-.27-.42-.57-.8-.9-1.13Zm-8.47-7.53c0 2.16 1.62 3.91 3.62 3.91s3.62-1.75 3.62-3.91-1.62-3.91-3.62-3.91-3.62 1.75-3.62 3.91Zm1 .01c0-1.61 1.17-2.91 2.62-2.91 1.44 0 2.62 1.3 2.62 2.91s-1.18 2.91-2.62 2.91c-1.44 0-2.62-1.3-2.62-2.91Zm16.57 15.07c.08.05.17.07.26.07l.01-.01c.17 0 .34-.08.43-.24.47-.79.84-1.63 1.1-2.5.53-1.77.51-4.33.41-5.3a.503.503 0 0 0-1 .1c.09.87.11 3.31-.37 4.92-.24.79-.58 1.55-1.01 2.27-.14.24-.07.55.17.69Zm-28.735.1H8.77h.01-.005Zm0 0a.5.5 0 0 1-.455-.3c-.35-.81-.63-1.66-.81-2.54-.29-1.4-.36-2.84-.21-4.28a.49.49 0 0 1 .55-.44c.27.03.47.28.44.55-.14 1.34-.08 2.67.19 3.97.17.81.42 1.6.75 2.34a.498.498 0 0 1-.455.7Z" fill="currentColor"/></symbol><symbol fill="none" viewBox="0 0 48 48" id="gofundme-giving-guarantee" xmlns="http://www.w3.org/2000/svg"><path fill-rule="evenodd" clip-rule="evenodd" d="M39.11 11.23c-1.52-.34-5.31-1.22-7.53-2.12-2.33-.94-4.62-2.08-6.79-3.39-.49-.3-1.11-.3-1.6 0a47.773 47.773 0 0 1-6.79 3.39c-2.22.89-6 1.78-7.52 2.12-.7.16-1.21.8-1.21 1.53.02 16.14.54 19.86 15.54 28.53a1.584 1.584 0 0 0 1.58 0c15-8.68 15.52-12.39 15.54-28.53 0-.73-.51-1.37-1.21-1.53h-.01ZM24.28 40.42c-.17.1-.4.1-.57 0C9.15 32 8.69 28.72 8.67 12.75c0-.26.18-.49.43-.55 1.92-.43 5.47-1.28 7.68-2.17 2.38-.96 4.72-2.12 6.94-3.46.09-.05.18-.08.28-.08.1 0 .19.03.28.08 2.22 1.34 4.55 2.51 6.94 3.46 2.21.89 5.76 1.74 7.68 2.17.25.06.43.29.43.55-.02 15.97-.48 19.24-15.04 27.67h-.01Zm-.23-19.6c.77-.05 1.35-.71 1.3-1.47v-2.96c0-.74-.59-1.35-1.33-1.39h-.06a1.4 1.4 0 0 0-1.39 1.39v3.13c.05.77.71 1.35 1.47 1.3h.01Zm-6.34.03c.56.52.6 1.4.08 1.96s-1.4.6-1.96.08l-.08-.08-2.1-2.09c-.54-.54-.54-1.42 0-1.96l.05-.05c.54-.49 1.39-.47 1.91.05l2.1 2.09Zm14.63-2.1-2.09 2.09c-.52.53-.54 1.36-.05 1.91l.05.05c.54.54 1.42.54 1.96 0l2.09-2.09.08-.08c.52-.56.48-1.44-.08-1.96a1.39 1.39 0 0 0-1.96.08ZM16.67 27a8.409 8.409 0 0 1 14.58 0H16.67Z" fill="currentColor"/></symbol><symbol fill="none" viewBox="0 0 48 48" id="heart-handshake" xmlns="http://www.w3.org/2000/svg"><path fill-rule="evenodd" clip-rule="evenodd" d="M22.93 41.66c-.68 0-1.32-.26-1.8-.75L7.98 27.76c-4.33-4.33-4.67-11.2-.77-15.63 2.08-2.37 4.96-3.74 8.11-3.84 3.12-.11 6.14 1.1 8.33 3.29l.09.09.08-.08c2.2-2.2 5.25-3.41 8.34-3.3 3.15.1 6.03 1.46 8.12 3.84h-.03c3.9 4.45 3.56 11.32-.78 15.66l-4.3 4.3c-.69.69-1.5 1.15-2.35 1.35a3.738 3.738 0 0 1-.855.088c.056.213.085.435.085.662 0 .68-.27 1.32-.75 1.8s-1.15.75-1.8.75v.01h-.013a2.558 2.558 0 0 1-.607 2.63c-.5.5-1.15.74-1.8.74l-.01.01a2.564 2.564 0 0 1-1.623-.581 2.534 2.534 0 0 1-.707 1.371c-.48.48-1.12.75-1.8.75l-.01-.01Zm10.5-11.388c.252.57.15 1.256-.32 1.718a1.56 1.56 0 0 1-2.076.103L25.34 25.99a.504.504 0 0 0-.71-.02c-.2.19-.21.51-.02.71l5.517 5.913c.023.038.05.074.083.107.043.043.087.084.132.123l.258.277c.6.61.6 1.59 0 2.19a1.559 1.559 0 0 1-2.113.072L22.32 28.81a.504.504 0 0 0-.71-.02c-.2.19-.21.51-.02.71l6.046 6.423c.019.027.04.053.064.077.029.028.057.056.087.083l.383.407c.6.61.6 1.59 0 2.19-.6.6-1.58.61-2.17.02l-1.047-1.14a2.511 2.511 0 0 0-.203-.23l-.379-.404-.28-.306a.53.53 0 0 0-.047-.043L19.03 31.23a.504.504 0 0 0-.71-.02c-.2.19-.21.51-.02.71l5.279 5.629.597.65c.197.265.304.586.304.921 0 .41-.16.8-.45 1.09-.59.58-1.61.58-2.19 0L8.69 27.06c-3.96-3.96-4.28-10.23-.73-14.27 1.9-2.16 4.53-3.41 7.39-3.5 2.88-.07 5.56.97 7.59 3l.09.09-8.42 8.42a.508.508 0 0 0 0 .72l.24.24c.73.73 1.67 1.26 2.69 1.39 1.4.17 2.75-.29 3.73-1.27l3.86-3.87c.2-.2.52-.2.72 0l.005.005c.22.207 3.95 3.716 7.985.445a.51.51 0 0 1 .72.08c.18.22.14.54-.08.72-3.98 3.22-7.78.77-8.97-.18l-.64.64c-.4.4-.4 1.04-.01 1.44 1.96 2.02 5.46 5.66 8.19 8.65.146.16.273.314.38.462Z" fill="currentColor"/></symbol><symbol fill="none" viewBox="0 0 48 48" id="laptop-notifications" xmlns="http://www.w3.org/2000/svg"><path d="M29.6 33.85c.2-.2.2-.51 0-.71-.2-.2-.51-.2-.71 0-2.14 2.14-5.63 2.14-7.78 0-.2-.2-.51-.2-.71 0-.2.2-.2.51 0 .71a6.471 6.471 0 0 0 4.6 1.9c1.67 0 3.33-.63 4.6-1.9ZM24.07 5.71c-.1-.53-.6-.88-1.14-.79l-6.07 1.1v-.15c-.6-2.34-3.19-4.04-6.14-4.04-.28 0-.5.22-.5.5s.22.5.5.5c2.51 0 4.68 1.38 5.17 3.29 0 .03.03.04.05.07L10.1 7.25c-.53.1-.88.6-.79 1.14l1.61 8.9c.1.53.6.88 1.14.79l12.84-2.32c.53-.1.88-.6.79-1.14l-1.61-8.9-.01-.01Zm-4.1 5.91c-.93 1.53-1.99 2.35-2 2.36 0 0-1.29-.4-2.7-1.51-.77-.61-1.36-1.8-.81-2.75.3-.52.88-.81 1.46-.68.55.12 1.02.55 1.34 1.03.14-.56.42-1.13.9-1.43.5-.32 1.14-.25 1.61.13.85.7.72 2.02.21 2.86l-.01-.01Z" fill="currentColor"/><path d="M42.7 38.71a.488.488 0 0 0-.4-.21h-2.79V22.19c0-.93-.79-1.69-1.77-1.69h-1.73v-1.37c0-.62-.5-1.13-1.13-1.13h-6.86c.91-3.24 3.73-5.5 6.88-5.5.28 0 .5-.22.5-.5s-.22-.5-.5-.5c-3.64 0-6.88 2.6-7.88 6.33-.02.06-.01.11-.01.17h-6.88c-.62 0-1.13.5-1.13 1.13v1.37h-6.73c-.97 0-1.77.76-1.77 1.69V38.5H7.71c-.16 0-.31.08-.4.21-.09.13-.12.3-.07.45l1.07 3.31c.2.62.77 1.04 1.43 1.04h30.54c.65 0 1.23-.42 1.43-1.04l1.07-3.31c.05-.15.02-.32-.07-.45h-.01ZM23.2 25.68s1.5 0 1.5-2.77c0-1.27 1.12-2.31 2.5-2.31s2.5 1.03 2.5 2.31c0 2.77 1.5 2.77 1.5 2.77v.92h-8v-.92Zm5.2 2.12c0 .66-.54 1.2-1.2 1.2-.66 0-1.2-.54-1.2-1.2h2.4Zm-16.9-5.61c0-.38.34-.69.77-.69H19v8.27c0 .62.5 1.13 1.13 1.13h14.75c.62 0 1.13-.5 1.13-1.13V21.5h1.73c.42 0 .77.31.77.69V38.5H11.5V22.19ZM27.69 39.5l-.5 1h-4.38l-.5-1h5.38Zm13.06 2.65c-.07.21-.26.35-.48.35H9.73c-.22 0-.41-.14-.48-.35l-.86-2.65h12.8l1 2h5.62l1-2h12.8l-.86 2.65Z" fill="currentColor"/></symbol><symbol fill="none" viewBox="0 0 48 48" id="medical" xmlns="http://www.w3.org/2000/svg"><path fill-rule="evenodd" clip-rule="evenodd" d="M20.22 21.02c-.03-.01-3.76-1.84-7.46-5.78-2.04-2.17-3.16-5.93-.95-8.39 1.22-1.35 3.16-1.88 4.86-1.22 1.63.64 2.82 2.14 3.55 3.68.73-1.54 1.92-3.04 3.55-3.68 1.7-.66 3.64-.13 4.86 1.22 2.21 2.45 1.09 6.22-.95 8.39-3.684 3.912-7.387 5.744-7.46 5.78Zm-2.63-8.22a.38.38 0 0 0-.38.38v.75c0 .21.17.38.38.38h1.5c.21 0 .38.17.38.38v1.5c0 .21.17.38.38.38h.75c.21 0 .38-.17.38-.38v-1.5c0-.21.17-.38.38-.38h1.5c.21 0 .38-.17.38-.38v-.75a.38.38 0 0 0-.38-.38h-1.5a.38.38 0 0 1-.38-.38v-1.5a.38.38 0 0 0-.38-.38h-.75a.38.38 0 0 0-.38.38v1.5c0 .21-.17.38-.38.38h-1.5Zm19.98 18.17-.02-1.36c-.34-2.24-2.31-3.94-4.58-3.94h-.34c-2.56 0-4.64 2.08-4.64 4.64v7.22c0 .97-.38 1.88-1.07 2.57-.69.69-1.6 1.07-2.57 1.07a3.64 3.64 0 0 1-3.64-3.64v-3.46c.78-2.71 2.6-5.36 6.08-8.85a.177.177 0 0 0 .025-.035c.008-.012.015-.025.025-.035 4.81-3.9 6.99-11.42 7.67-14.26.09-.38 0-.78-.24-1.08-.25-.32-.64-.5-1.05-.5h-1.78c-.28 0-.5.22-.5.5s.22.5.5.5h1.78c.11 0 .2.04.27.12.03.04.08.12.05.23-.89 3.74-4.47 15.92-13.32 15.92-8.85 0-12.44-12.18-13.33-15.92-.03-.11.02-.19.05-.23.06-.08.16-.12.27-.12h1.78c.28 0 .5-.22.5-.5s-.22-.5-.5-.5H7.21c-.42 0-.8.18-1.05.5-.24.31-.33.7-.24 1.08.68 2.85 2.87 10.4 7.71 14.29 0 .01.01.03.02.04 3.46 3.47 5.27 6.11 6.06 8.81v3.5c0 2.56 2.08 4.64 4.64 4.64 1.24 0 2.4-.48 3.28-1.36.88-.88 1.36-2.04 1.36-3.28v-7.22a3.64 3.64 0 0 1 3.64-3.64h.34c1.78 0 3.33 1.33 3.59 3.01v1.29c-2.49.27-4.45 2.37-4.45 4.95 0 2.76 2.24 5 5 5s5-2.24 5-5c0-2.6-2-4.72-4.54-4.95Zm-17.36-3.39c1.32 0 2.53-.25 3.64-.68-1.7 1.96-2.85 3.7-3.57 5.42-.009 0-.018-.002-.028-.004-.012-.003-.025-.006-.042-.006-.02 0-.04 0-.06.01-.72-1.71-1.87-3.45-3.56-5.4 1.1.42 2.3.67 3.61.67l.01-.01Zm16.91 12.34c-2.21 0-4-1.79-4-4s1.79-4 4-4 4 1.79 4 4-1.79 4-4 4Zm0-6.37c-1.31 0-2.38 1.07-2.38 2.38 0 1.31 1.07 2.38 2.38 2.38 1.31 0 2.38-1.07 2.38-2.38 0-1.31-1.07-2.38-2.38-2.38Zm0 3.75c-.76 0-1.38-.62-1.38-1.38 0-.76.62-1.38 1.38-1.38.76 0 1.38.62 1.38 1.38 0 .76-.62 1.38-1.38 1.38Z" fill="currentColor"/></symbol><symbol fill="none" viewBox="0 0 48 48" id="memorials" xmlns="http://www.w3.org/2000/svg"><path fill-rule="evenodd" clip-rule="evenodd" d="M24.52 6.23c0 .27-.22.5-.5.5-.27 0-.5-.23-.5-.5l-.03-3.73c0-.27.22-.5.5-.5.27 0 .5.23.5.5l.03 3.73Zm4.92 1.93c-.1.11-.24.17-.38.17v-.01c-.12 0-.23-.04-.33-.12-.2-.19-.22-.5-.04-.71l1.67-1.9c.19-.2.51-.23.71-.04.2.19.22.5.04.71l-1.67 1.9Zm-10.95-.14a.493.493 0 0 0 .7.06c.21-.18.24-.49.06-.7l-1.61-1.93a.494.494 0 0 0-.7-.06c-.21.18-.24.49-.06.7l1.61 1.93Zm13.94 12.46v13.21c4.3.92 7.16 2.53 7.16 4.37 0 2.87-6.98 5.2-15.59 5.2s-15.59-2.33-15.59-5.2c0-1.83 2.86-3.44 7.16-4.37V20.48c0-.015.005-.027.01-.04a.105.105 0 0 0 .01-.04l-.004-.021c-.008-.04-.016-.076-.016-.119 0-1.63 2.68-2.64 5.89-2.99-.73-.61-1.19-1.47-1.19-2.43 0-1.192.72-1.832 1.427-2.458l.013-.012c.76-.67 1.55-1.37 1.71-2.92a.5.5 0 0 1 .8-.35l.008.006c.226.177 3.502 2.736 3.502 5.734 0 .96-.46 1.82-1.19 2.43 3.21.34 5.89 1.36 5.89 2.99 0 .025-.005.047-.01.07a.315.315 0 0 0-.01.07c.01.02.02.08.02.08Zm-10.06-7.36c-.7.62-1.1 1.01-1.1 1.72v.01c0 .84.53 1.57 1.32 1.98-.07-.16-.11-.32-.11-.49 0-.46.28-.707.598-.989.375-.332.801-.709.882-1.531 0 0 1.56 1.19 1.56 2.52 0 .18-.04.34-.11.49.79-.41 1.32-1.14 1.32-1.98 0-1.82-1.57-3.55-2.48-4.4-.369 1.337-1.196 2.067-1.875 2.666l-.005.004Zm1.03 6.77v-1.74c-4.19.11-6.83 1.29-6.83 2.12 0 .41.73 1.03 2.37 1.49.09.03.16.07.22.13 1.145.587 1.289 1.67 1.389 2.419l.001.011c.11.82.19.98.53 1.04.27.04.36-.02.72-.77.4-.84 1-2.1 2.92-2.21.03-.01.07-.01.1-.01 4.27-.16 6.61-1.35 6.61-2.11 0-.83-2.65-2.01-6.83-2.12v1.75c0 .33-.27.6-.6.6-.33 0-.6-.27-.6-.6Zm-6.83 1.91v11.69h-.01v2.38c0 .63 3.08 2.6 7.43 2.6s7.43-1.97 7.43-2.6V21.81c-1.38.94-3.98 1.46-6.46 1.56h-.07c-1.414.03-1.787.803-2.185 1.63l-.005.01c-.27.58-.64 1.35-1.5 1.35-.1 0-.19-.01-.3-.03-1.12-.2-1.25-1.18-1.34-1.89-.13-.94-.25-1.53-1.27-1.83-.015-.005-.03-.012-.045-.02a.354.354 0 0 0-.045-.02c-.67-.22-1.21-.48-1.63-.77Z" fill="currentColor"/></symbol><symbol fill="none" viewBox="0 0 48 48" id="mobile-notifications" xmlns="http://www.w3.org/2000/svg"><path fill-rule="evenodd" clip-rule="evenodd" d="M42.62 20.32a.454.454 0 0 0-.33-.19l-4.71-.63a.497.497 0 0 0-.56.43c-.03.27.16.53.43.56l3.48.47c-2.18 1.7-4.33 3.18-6.43 4.47V8A2.5 2.5 0 0 0 32 5.5H16A2.5 2.5 0 0 0 13.5 8v24.52c-1.5-.03-2.74-.24-3.63-.63-.52-.23-1.16-.63-1.2-1.25-.06-.84.93-1.96 2.7-3.05.23-.15.31-.45.16-.69a.49.49 0 0 0-.69-.16c-2.17 1.34-3.27 2.71-3.18 3.97.04.62.39 1.48 1.8 2.1.98.43 2.36.67 4.03.69v6.51a2.5 2.5 0 0 0 2.5 2.5h16a2.5 2.5 0 0 0 2.5-2.5V26.59a69.9 69.9 0 0 0 7.07-4.85l-.53 3.83c-.04.27.15.53.43.56h.07c.25 0 .46-.18.49-.43l.7-5a.489.489 0 0 0-.1-.37v-.01ZM14.5 8c0-.83.67-1.5 1.5-1.5h16c.83 0 1.5.67 1.5 1.5v18.02c-7.56 4.43-14.36 6.32-19 6.49V8Zm19 32c0 .83-.67 1.5-1.5 1.5H16c-.83 0-1.5-.67-1.5-1.5v-6.53c4.73-.19 11.51-2.03 19-6.31V40ZM20.36 9.85h7.29c.28 0 .5-.22.5-.5s-.22-.5-.5-.5h-7.29c-.28 0-.5.22-.5.5s.22.5.5.5ZM24 19.52c.52-1.11 1.37-2.18 2.54-2.64h.02c1.22-.48 2.61-.1 3.48.87 1.59 1.76.78 4.46-.68 6.02-2.66 2.83-5.33 4.15-5.35 4.15h-.001c-.067-.033-2.723-1.345-5.35-4.15-1.46-1.56-2.27-4.26-.68-6.02.87-.97 2.26-1.35 3.48-.87 1.17.46 2.02 1.54 2.54 2.64Z" fill="currentColor"/></symbol><symbol fill="none" viewBox="0 0 48 48" id="newlyweds" xmlns="http://www.w3.org/2000/svg"><path d="M40.42 23.46c-3.19-4.35-8.86-5.82-13.66-3.93-1.45-1.66-3.37-2.9-5.55-3.53l5.11-4.71c.1-.09.16-.22.16-.36 0-.14-.05-.27-.15-.36l-1.52-1.52c.18-.09.37-.17.57-.21l2.05-.41c.27-.05.46-.28.46-.55 0-.24-.21-.52-.44-.57l-2.04-.48c-.93-.22-1.65-.98-1.84-1.95l-.41-2.11a.578.578 0 0 0-.56-.47c-.26-.03-.51.22-.57.45l-.46 2.09c-.21.95-.95 1.69-1.88 1.88L18.3 7h-4.87a.47.47 0 0 0-.35.15l-3.42 3.42c-.1.1-.15.23-.15.36 0 .14.06.26.16.36L14.78 16c-4.86 1.4-8.44 5.88-8.44 11.18 0 6.42 5.22 11.65 11.64 11.65 6.42 0 11.64-5.22 11.64-11.65 0-2.56-.84-4.92-2.24-6.84 4.32-1.56 9.34-.18 12.2 3.71 3.47 4.73 2.45 11.41-2.28 14.88-3.77 2.77-9 2.73-12.73-.09a.498.498 0 0 0-.7.1c-.17.22-.12.53.1.7 2.06 1.56 4.54 2.34 7.03 2.34s4.86-.75 6.89-2.24c5.18-3.8 6.3-11.1 2.5-16.28h.03ZM19.91 7.71c1.32-.26 2.37-1.3 2.66-2.64l.02-.08.02.09a3.472 3.472 0 0 0 2.59 2.73l.15.04-.14.03c-1.32.26-2.37 1.3-2.66 2.64l-.02.08-.02-.09a3.472 3.472 0 0 0-2.59-2.73l-.15-.04.14-.03Zm8.75 19.48c0 5.87-4.77 10.65-10.64 10.65-5.87 0-10.64-4.78-10.64-10.65 0-5.29 3.88-9.67 8.93-10.49h3.42c2.39.39 4.5 1.57 6.08 3.27-.57.29-1.13.61-1.66 1-4.52 3.32-6.04 9.38-3.61 14.43.12.25.42.36.67.23a.5.5 0 0 0 .23-.67c-2.22-4.61-.83-10.15 3.3-13.19.55-.41 1.13-.74 1.73-1.03 1.37 1.79 2.19 4.02 2.19 6.45Z" fill="currentColor"/></symbol><symbol fill="none" viewBox="0 0 48 48" id="send-help" xmlns="http://www.w3.org/2000/svg"><path fill-rule="evenodd" clip-rule="evenodd" d="M43.97 10.3a.968.968 0 0 0-1.07-.36l-14.8 5.14c-.76-.8-1.88-1.16-2.95-.85-1.16.33-2.08 1.3-2.69 2.33-.39-1.13-1.09-2.27-2.16-2.83-1.12-.59-2.48-.35-3.41.51-1.28 1.19-1.3 3.04-.7 4.59L3.65 22.88c-.4.11-.71.42-.84.83-.13.43-.04.89.25 1.23 2 2.33 5.74 3.86 10.05 4.12l.7 7.91a.5.5 0 0 0 .83.33l4.5-3.94c2.61 3.57 5.39 6.01 6.5 6.92.21.18.47.27.73.27.06 0 .12 0 .18-.01.33-.05.63-.25.83-.56l16.63-28.49c.24-.37.22-.84-.04-1.2v.01Zm-15.31 5.64 13.39-4.66c-3.33 2.37-6.74 4.69-10.17 6.92-1.55 1.01-3.13 2-4.71 2.99 1.39-1.26 2.32-3.46 1.49-5.25ZM3.81 24.3c-.097-.106-.062-.24-.051-.286l.001-.004c.01-.04.05-.14.17-.17l12.71-4.11c.09.16.19.32.29.46 1.97 2.65 4.06 4.16 4.57 4.5-2.49 1.48-6.1 3.39-7.91 3.39h-.04c-6.23-.27-9.02-2.97-9.73-3.8l-.01.02Zm10.3 4.75c.99-.13 2.22-.57 3.49-1.14a1.425 1.425 0 0 1-.044.12c-.022.056-.044.111-.056.17-.31 1.32.08 2.89 1.06 4.36l-3.84 3.36-.6-6.87h-.01Zm12.42 10.43c-.03.05-.08.09-.13.1-.05 0-.09 0-.13-.04-1.12-.92-4.01-3.46-6.64-7.18-.99-1.32-1.42-2.78-1.15-3.91.17-.72.59-1.25 1.26-1.58 2.113-1.133 3.91-2.302 4.224-2.507L24 24.34c2.82-1.7 5.66-3.47 8.43-5.27 3.36-2.18 6.71-4.47 9.98-6.79L26.53 39.5v-.02Zm-16.34-8.25L4 34.74c-.24.14-.32.44-.19.68a.5.5 0 0 0 .44.25c.08 0 .17-.02.25-.06l6.19-3.51c.24-.14.32-.44.19-.68a.505.505 0 0 0-.68-.19h-.01ZM7.1 36.98l3.09-1.75h.01c.24-.13.54-.05.68.19.13.24.05.54-.19.68L7.6 37.85c-.08.04-.17.06-.25.06a.5.5 0 0 1-.44-.25.505.505 0 0 1 .19-.68Z" fill="currentColor"/></symbol><symbol fill="none" viewBox="0 0 48 48" id="sports" xmlns="http://www.w3.org/2000/svg"><path fill-rule="evenodd" clip-rule="evenodd" d="M41.79 20.41c2.33 1.65 4.04 3.43 5 4.56v-.03c.85 1 .94 2.46.23 3.56-.96 1.48-2.8 3.94-5.58 6.02a.45.45 0 0 1-.19.14c-2.7 1.98-6.25 3.6-10.72 3.64h-.21c-4.32-.04-7.79-1.56-10.46-3.46-1.13.53-2.35.91-3.62 1.11a13.14 13.14 0 0 1-4.02.03c-2.24-.32-4.38-1.2-6.2-2.55-.6-.44-1.17-.94-1.7-1.49-1.88-1.95-3.13-4.4-3.59-7.09a2.186 2.186 0 0 1-.035-.162L.68 24.61c-.47-2.96.03-5.91 1.44-8.54 1.3-2.41 3.25-4.34 5.63-5.59 1.31-.71 2.75-1.19 4.27-1.43 1.51-.24 3.03-.22 4.5.05 2.65.46 5.1 1.7 7.08 3.6a13.31 13.31 0 0 1 2.98 4.29c1.18-.26 2.43-.44 3.74-.45h.21c4.47.04 8.23 1.77 11.08 3.74.07.03.13.07.18.13Zm-22.92 1.38a26.901 26.901 0 0 0-4.06 3.83c-.56.65-.62 1.63-.15 2.36.81 1.25 2.28 3.23 4.44 5.05-.85-3.68-.92-7.51-.23-11.24Zm-2.28-11.64-3.27 3.27c-.03.03-.1.07-.1.07l.69 4.38 4.38 2.24 3.69-2.08-.002-.06a.716.716 0 0 1 .002-.14l.73-4.57c-1.74-1.6-3.84-2.67-6.12-3.11Zm-8.58 1.345a12.475 12.475 0 0 0-4.87 4.835l2.1 4.13c.02.04.031.08.042.12l.018.06 4.15.85 3.48-3.47-.69-4.37-.15-.06-4.08-2.095ZM4.87 31.07l4.57-.73v.01h.12l1.77-3.45-2.26-4.45-4-.82c-.02.01-.04.05-.04.05l-3.27 3.26c.47 2.34 1.53 4.43 3.11 6.13Zm7.75 3.97c1.14.14 2.3.12 3.47-.06h-.01c1-.15 1.95-.43 2.86-.81-2.52-2-4.22-4.25-5.12-5.64-.22-.33-.35-.7-.42-1.08l-1.31.21h-.03l-1.61 3.15.09.12 2.08 4.11Zm28.03-1.153c-2.578 1.886-5.975 3.413-10.22 3.433-4.15-.02-7.48-1.48-10.04-3.3a26.691 26.691 0 0 1-.33-13.08c2.71-1.82 6.22-3.37 10.36-3.39 4.24.02 7.82 1.65 10.56 3.53.93 4.229.82 8.648-.33 12.807Zm1.29-1.027a22.98 22.98 0 0 0 4.25-4.88l-.01-.01a2 2 0 0 0-.15-2.36c-.79-.92-2.1-2.31-3.86-3.68.65 3.62.57 7.35-.23 10.93ZM35.77 21.1c.5.17 1 .36 1.5.58l.03.01a.502.502 0 0 1-.21.96c-.06 0-.13-.01-.2-.04-.39-.17-.78-.32-1.18-.46l-.03.29c-.03.26-.24.46-.5.46h-.04a.496.496 0 0 1-.45-.54l.05-.51c-.66-.19-1.33-.34-2-.45l-.04.46c-.03.26-.24.46-.5.46h-.04a.503.503 0 0 1-.46-.54l.04-.5-.029-.003c-.42-.039-.83-.077-1.251-.077-.36 0-.73.03-1.09.06l.04.51a.51.51 0 0 1-.46.54h-.04c-.26 0-.48-.2-.5-.46l-.04-.49c-.68.1-1.34.24-2.01.43l.05.57c.03.27-.17.52-.45.54h-.04c-.26 0-.48-.2-.5-.46l-.03-.36c-.41.14-.82.29-1.23.47a.507.507 0 0 1-.66-.26c-.11-.25.01-.55.26-.66.51-.23 1.02-.42 1.54-.59l-.06-.63c-.03-.27.17-.52.45-.54.25-.02.51.17.54.45l.04.44c.67-.17 1.34-.32 2.01-.41l-.05-.54a.51.51 0 0 1 .46-.54c.27-.02.52.18.54.46l.04.51.234-.019c.312-.025.624-.051.936-.051.45 0 .91.04 1.36.08l.04-.53c.02-.28.29-.47.54-.46.28.02.48.27.46.54l-.05.57c.67.11 1.34.25 2.01.44l.04-.5c.02-.27.28-.47.54-.45.27.02.47.26.45.54l-.06.7Z" fill="currentColor"/></symbol><symbol fill="none" viewBox="0 0 48 48" id="target" xmlns="http://www.w3.org/2000/svg"><path fill-rule="evenodd" clip-rule="evenodd" d="M10.3 8.19c.09.08.21.12.33.12.14 0 .28-.06.38-.17.18-.21.16-.52-.05-.71L5.79 2.89a.506.506 0 0 0-.71.05c-.18.21-.16.52.05.71L10.3 8.2v-.01Zm-1.59 2.04c.14 0 .28-.06.38-.17.18-.21.16-.52-.05-.71L5.28 6.04a.506.506 0 0 0-.71.05c-.18.21-.16.52.05.71l3.76 3.31c.09.08.21.12.33.12Zm32.78 14.46c0 3.45-1.22 6.61-3.25 9.08l.02.02-.02-.01 2.7 6.6c.11.25-.01.55-.27.65-.06.03-.13.04-.19.04a.51.51 0 0 1-.46-.31l-2.53-6.18c-2.61 2.72-6.4 4.43-10.33 4.43-3.93 0-7.48-1.59-10.07-4.15l-2.41 5.9c-.08.19-.26.31-.46.31a.501.501 0 0 1-.46-.69l2.59-6.33c-2.18-2.52-3.51-5.79-3.51-9.37 0-2.66.74-5.14 2.01-7.28-.72.04-1.53.05-2.41-.02-1.78-.14-3.9-1.35-4.09-3.33-.11-1.09.44-2.11 1.42-2.5.93-.37 2.07-.19 3.05.2-.39-.97-.58-2.11-.2-3.05.4-.98 1.41-1.53 2.5-1.42 1.98.19 3.19 2.31 3.33 4.09.05.7.06 1.34.04 1.94 2.41-1.84 5.41-2.95 8.67-2.95 7.9 0 14.33 6.43 14.33 14.33Zm-27.65 0c0 7.35 5.98 13.33 13.33 13.33v.01c7.35 0 13.33-5.98 13.33-13.33s-5.98-13.33-13.33-13.33c-3.36 0-6.42 1.25-8.76 3.3-.07.69-.17 1.23-.25 1.62l2.27 1.99a9.3 9.3 0 0 1 6.74-2.9c5.13 0 9.31 4.18 9.31 9.31 0 5.13-4.18 9.31-9.31 9.31-5.13 0-9.31-4.18-9.31-9.31 0-2.12.72-4.07 1.92-5.64l-2.26-1.99c-.33.07-.82.16-1.43.24a13.21 13.21 0 0 0-2.25 7.39Zm13.2.57c-.12 0-.24-.04-.33-.12v-.01l-2.37-2.09c-.28.48-.45 1.03-.45 1.63 0 1.81 1.47 3.28 3.28 3.28 1.81 0 3.28-1.47 3.28-3.28 0-1.81-1.47-3.28-3.28-3.28-.85 0-1.62.34-2.2.87l2.4 2.12c.21.19.23.5.05.71-.1.11-.24.17-.38.17Zm4.41-.57c0 2.36-1.92 4.28-4.28 4.28h-.01c-2.36 0-4.28-1.92-4.28-4.28 0-.85.26-1.64.69-2.31l-3.04-2.67a8.288 8.288 0 0 0-1.67 4.98c0 4.58 3.73 8.31 8.31 8.31s8.31-3.73 8.31-8.31-3.73-8.31-8.31-8.31c-2.35 0-4.48.98-5.99 2.56l3.03 2.67c.77-.74 1.81-1.2 2.96-1.2 2.36 0 4.28 1.92 4.28 4.28Z" fill="currentColor"/></symbol><symbol fill="none" viewBox="0 0 48 48" id="travel" xmlns="http://www.w3.org/2000/svg"><path fill-rule="evenodd" clip-rule="evenodd" d="M14.16 19.62c-.78.17-1.49.02-2.13-.44-2.29-1.66-2.82-7.04-2.84-7.27a.5.5 0 0 1 .32-.51l.8-.31c.16-.06.35-.03.49.08l2.97 2.38c1.15-.5 5.68-2.52 10.84-4.86 6.33-2.87 9.62-2.53 11.26-1.74.6.29.98.87 1.01 1.56.03.74-.36 1.43-1 1.8-1.066.6-2.92 1.342-4.898 2.133l-.192.077c-1.46.58-2.96 1.18-4.32 1.78l-2.02 6.86c-.15.51-.54.92-1.04 1.1l-2.58.91c-.06.03-.11.03-.17.03-.11 0-.21-.03-.29-.09a.488.488 0 0 1-.21-.4l-.09-5.67a71.058 71.058 0 0 0-3.11 1.42c-1.2.58-2.06.99-2.8 1.16Zm12.85-8.8c-.16-.53-.66-.86-1.11-.72-.45.14-.68.69-.52 1.22.16.53.66.86 1.11.72.45-.14.68-.69.52-1.22Zm-4.47 1.92c-.16-.54-.66-.86-1.11-.72-.45.14-.68.69-.52 1.22.16.54.66.86 1.11.72.45-.14.68-.69.52-1.22Zm-4.56 1.92c-.16-.54-.66-.86-1.11-.72-.45.14-.68.69-.52 1.22.16.54.66.86 1.11.72.45-.14.68-.69.52-1.22ZM8.13 32.67a70.244 70.244 0 0 0 16.4 1.94h1.08c5.1-.08 10.21-.72 15.18-1.9.41-.1.76-.37.97-.74.2-.37.24-.82.09-1.21-1.2-3.34-4.45-11.12-8.67-11.12-2.36-.23-4.29 1.8-6.14 3.76-1.88 1.99-3.66 3.86-5.56 3-2.19-1.85-5.16-3.57-8.06-2.75-4.38 1.24-5.92 5.46-6.38 7.22-.1.39-.04.8.16 1.14.21.35.54.59.93.68v-.02ZM8 31.1c.42-1.59 1.81-5.42 5.68-6.51.42-.12.83-.17 1.26-.17 4.45 0 9.04 6 9.09 6.07.17.22.48.26.7.1.22-.17.26-.48.1-.7-.08-.11-.85-1.11-2.04-2.29 1.802-.19 3.396-1.865 4.949-3.497l.021-.023.016-.017c1.685-1.784 3.42-3.622 5.354-3.433 2.49 0 5.46 4.01 7.78 10.46.05.13.04.27-.03.4s-.18.21-.32.25c-4.9 1.17-9.94 1.8-14.96 1.88-5.77.1-11.59-.55-17.23-1.91a.5.5 0 0 1-.31-.22.46.46 0 0 1-.05-.38L8 31.1Zm35.18 4.83c-.18-.2-.5-.22-.71-.04-.08.08-2.13 1.85-5.17-.05a.498.498 0 0 0-.56.02.51.51 0 0 0-.2.52l.002.01c.02.104.211 1.081-.302 1.86-.34.52-.95.85-1.79.99-3.27.54-4.98-2.06-5.05-2.17a.499.499 0 0 0-.92.27c0 .11-.08 2.69-3.97 2.73-3.785-.04-3.954-2.495-3.969-2.718v-.012a.499.499 0 0 0-.92-.27c-.07.11-1.75 2.61-5.07 2.17-.8-.1-1.38-.41-1.72-.89-.59-.83-.36-1.97-.35-1.98.04-.2-.04-.4-.2-.51a.481.481 0 0 0-.55-.01c-3.04 1.91-5.08.13-5.17.05a.505.505 0 0 0-.71.03c-.19.2-.17.52.03.71.02.02 2.29 2.04 5.56.5.03.53.16 1.19.57 1.78.51.73 1.32 1.17 2.41 1.32 2.67.35 4.46-.91 5.36-1.81.41 1.07 1.53 2.56 4.58 2.64h.32c3.03-.08 4.15-1.55 4.57-2.62.9.93 2.7 2.24 5.38 1.79 1.13-.19 1.96-.67 2.46-1.44.37-.56.49-1.16.51-1.65 3.152 1.48 5.37-.361 5.539-.502a.493.493 0 0 0 .04-.708v-.01Z" fill="currentColor"/></symbol><symbol fill="none" viewBox="0 0 48 48" id="trophy" xmlns="http://www.w3.org/2000/svg"><path d="M36.34 14.44c-.13 0-.26.01-.39.03a.448.448 0 0 0-.2-.04c-2.34 0-5.63 0-9.1.01a8.91 8.91 0 0 1 1.02-3.1l.55.53a4.1 4.1 0 0 0 2.85 1.14 4.1 4.1 0 0 0 2.85-1.14l.83-.81c.1-.09.15-.22.15-.36 0-.14-.05-.26-.15-.36l-.83-.81c-1.03-1-2.49-1.33-3.81-1.01 1.25-.95 2.37-1.34 2.47-1.37.03 0 .04-.03.07-.04.4.59 1.09.97 1.84.97.12 0 .23 0 .35-.03.6-.09 1.11-.41 1.46-.89a2.1 2.1 0 0 0 .38-1.59c-.2-1.17-1.34-1.98-2.54-1.79-.6.09-1.11.41-1.46.89-.32.45-.45.99-.38 1.53h-.02c-.11.03-1.27.43-2.6 1.4.02-.17.05-.33.05-.51 0-1.05-.42-2.04-1.19-2.78l-.83-.81a.501.501 0 0 0-.7 0l-.83.81c-.77.74-1.19 1.73-1.19 2.78 0 1.05.42 2.04 1.19 2.78l.76.73c-.6 1.03-1.08 2.27-1.28 3.76v.06H22.5v-.06c-.2-1.5-.68-2.74-1.29-3.77l.76-.73c.77-.74 1.19-1.73 1.19-2.78 0-1.05-.42-2.04-1.19-2.78l-.83-.81a.501.501 0 0 0-.7 0l-.83.81c-.77.74-1.19 1.73-1.19 2.78 0 .17.03.34.05.51-.86-.63-1.64-1.01-2.12-1.22 0-.04.03-.08.03-.13A2.1 2.1 0 0 0 16 4.65c-.35-.48-.87-.8-1.46-.89-1.2-.19-2.34.62-2.54 1.79a2.1 2.1 0 0 0 .38 1.59c.35.48.87.8 1.46.89a2.239 2.239 0 0 0 2.06-.76c.44.18 1.25.57 2.12 1.24-1.32-.32-2.78.01-3.81 1.01l-.83.81c-.1.09-.15.22-.15.36 0 .14.05.26.15.36l.83.81c.78.76 1.82 1.14 2.85 1.14a4.1 4.1 0 0 0 2.85-1.14l.55-.54c.48.87.85 1.89 1.03 3.11-3.54 0-6.9.01-9.29.01-.03 0-.05.01-.08.02-.15-.02-.3-.03-.46-.03-2.26 0-4.09 1.89-4.09 4.21 0 2.32 1.84 4.21 4.09 4.21.28 0 .5-.22.5-.5s-.22-.5-.5-.5c-1.7 0-3.09-1.44-3.09-3.21s1.39-3.21 3.09-3.21c2.48 0 3.23 2.87 4.1 6.2.1.4.21.8.32 1.21-2.55 2.22-4.18 5.48-4.18 9.12v9.33c0 .46.37.82.82.82h22.54c.46 0 .82-.37.82-.82v-9.33c0-3.65-1.62-6.9-4.18-9.12.11-.4.22-.81.32-1.21.87-3.33 1.62-6.2 4.1-6.2 1.7 0 3.09 1.44 3.09 3.21s-1.39 3.21-3.09 3.21c-.28 0-.5.22-.5.5s.22.5.5.5c2.26 0 4.09-1.89 4.09-4.21 0-2.32-1.84-4.21-4.09-4.21l.02.01Zm-2.86-9.18c.19-.26.48-.44.8-.49.67-.11 1.29.33 1.4.96.05.3-.02.59-.2.84-.19.26-.48.44-.8.49-.67.11-1.29-.33-1.4-.96-.05-.3.02-.6.2-.84Zm-4.56 5a3.111 3.111 0 0 1 4.3 0l.46.45-.46.45a3.111 3.111 0 0 1-4.3 0l-.46-.45.46-.45Zm-2.06-1.1c-.57-.55-.88-1.28-.88-2.06s.31-1.51.88-2.06l.48-.47.48.47c.57.55.88 1.28.88 2.06s-.31 1.51-.88 2.06l-.49.47-.48-.47h.01ZM14 7.06c-.33-.05-.61-.22-.8-.49a1.11 1.11 0 0 1-.2-.84c.1-.57.61-.98 1.2-.98.06 0 .13 0 .2.02.33.05.61.22.8.49.18.25.25.55.2.84-.11.64-.74 1.07-1.4.96Zm5.21 4.09c-1.19 1.15-3.12 1.15-4.3 0l-.46-.45.46-.45a3.111 3.111 0 0 1 4.3 0l.46.45-.46.45Zm1.09-1.99c-.57-.55-.88-1.28-.88-2.06s.31-1.51.88-2.06l.49-.47.48.47c.57.55.88 1.28.88 2.06s-.31 1.51-.88 2.06l-.48.47-.49-.47Zm-2.18 31.63 1.61-4.78.06-.17h8.42v.02l.03.05 1.64 4.88H18.12Zm4.46-8.23c.15-.84.05-1.65-.3-2.36h3.34c-.34.71-.45 1.53-.3 2.36.16.86.58 1.67 1.16 2.28h-5.07c.58-.61 1.01-1.42 1.16-2.28h.01Zm8.69-11.17c-.96 3.67-1.95 7.46-5.63 7.46h-3.27c-3.68 0-4.67-3.79-5.63-7.46-.6-2.29-1.22-4.64-2.54-5.93 2.77 0 6.28 0 9.79-.02 3.55 0 7.08-.01 9.86-.01-1.35 1.29-1.97 3.65-2.57 5.96h-.01Z" fill="currentColor"/></symbol><symbol fill="none" viewBox="0 0 48 48" id="trust-and-safety" xmlns="http://www.w3.org/2000/svg"><path d="M26.26 8.5a.494.494 0 0 0 .69.15L29.9 6.8c.23-.15.3-.46.16-.69a.51.51 0 0 0-.69-.16L26.42 7.8c-.23.15-.3.46-.16.69v.01ZM24.65 6.98c.08.04.16.06.24.06.18 0 .35-.09.44-.26l2.47-4.54c.13-.24.04-.55-.2-.68a.509.509 0 0 0-.68.2L24.45 6.3c-.13.24-.04.55.2.68ZM22.15 6.25a.494.494 0 0 0 .65.27c.26-.1.38-.39.28-.65l-1.2-3a.501.501 0 0 0-.93.37l1.2 3v.01ZM38.46 11.59H25.65c-.02-.07-.04-.15-.06-.21-.36-1.01-.94-1.7-1.73-2.04-1.24-.54-2.52.01-2.57.04a.5.5 0 0 0-.3.5c.05.58.08 1.15.08 1.71H9.54c-.81 0-1.46.66-1.46 1.46v11.93c0 2.74 1.19 5.51 3.53 8.22 3.59 4.19 9.12 7.3 11.81 8.47a1.47 1.47 0 0 0 1.16 0c5.31-2.32 15.35-8.8 15.35-16.69V13.05c0-.81-.66-1.46-1.46-1.46h-.01Zm-12.31 4h9.78v9.39c0 5.33-7.67 10.47-11.92 12.54-1.07-.53-3.55-1.84-6.02-3.78l.26-.11c.51-.14.95-.47 1.21-.93.23-.41.46-.9.46-1.26 1.57-.26 2.98-.4 4.24-.52 2.42-.23 4.33-.41 5.81-1.37 1.45-.96 2.51-3.72 3.14-8.23.1-.71-.11-1.44-.58-1.98-.47-.55-1.16-.86-1.89-.86h-5.09c.39-.94.56-1.94.6-2.9v.01Zm-4.12-2.55c.07-.9.06-1.86 0-2.85.35-.08.92-.16 1.45.07.53.23.92.72 1.19 1.46.2.56.51 1.83.52 3.28 0 .03-.02.06-.02.1 0 .04.01.07.02.11-.01 1.18-.23 2.45-.86 3.53-.09.15-.09.35 0 .5.09.16.25.25.43.25h5.9a1.519 1.519 0 0 1 1.48 1.72c-.58 4.09-1.54 6.77-2.7 7.53-1.27.83-2.98.99-5.35 1.21-1.72.16-3.7.36-5.99.84-1.15-1.74-2.01-4.61-1.01-9.08 1.17-.61 2.14-1.4 3.05-2.69 1.08-1.53 1.76-3.65 1.9-5.97l-.01-.01Zm-10.45 1.55c-.28 0-.5.22-.5.5v7.61c-.7.16-1.37.28-2 .35v-9.99c0-.26.21-.46.46-.46h11.5c0 .13 0 .26-.01.38-.04.59-.12 1.16-.23 1.72a.478.478 0 0 0-.28-.1h-8.94v-.01Zm.5 7.87v-6.87h8.44s.04-.01.07-.01c-.3 1.08-.72 2.06-1.28 2.85-1.21 1.71-2.49 2.42-4.42 3.13-.98.36-1.92.66-2.81.9Zm26.85 2.52c0 3.23-3.08 10.68-14.75 15.78-.11.05-.23.05-.35 0-2.05-.89-5.79-2.94-8.98-5.73l2.08-.85c2.88 2.35 5.87 3.88 6.86 4.35.07.03.14.05.22.05.08 0 .15-.02.22-.05 4.39-2.1 12.7-7.63 12.7-13.55v-9.89c0-.28-.22-.5-.5-.5H26.16c-.03-.74-.12-1.43-.24-2h12.55c.26 0 .46.21.46.46v11.93Z" fill="currentColor"/></symbol><symbol fill="none" viewBox="0 0 48 48" id="vault" xmlns="http://www.w3.org/2000/svg"><path d="M41.72 6.5h-31c-.83 0-1.5.67-1.5 1.5v.69l-2.76-.88h-.1c-.02 0-.03-.01-.05-.01h-2.1c-.94 0-1.71.77-1.71 1.71v25.82c0 .94.77 1.71 1.71 1.71h2.1c.05 0 .1 0 .15-.02l2.76-.88v.88c0 .83.67 1.5 1.5 1.5h1.7v3.15c0 .28.22.5.5.5h2.34c.22 0 .41-.14.48-.35l1.06-3.29v-.01h18.98v.01l1.06 3.29c.07.21.26.35.48.35h2.34c.28 0 .5-.22.5-.5v-3.15h1.56c.83 0 1.5-.67 1.5-1.5V8c0-.83-.67-1.5-1.5-1.5ZM5.8 36.02H4.2c-.39 0-.71-.32-.71-.71V9.5c0-.39.32-.71.71-.71h1.6v27.24-.01Zm1-.18V8.97l6.59 2.11v22.66L6.8 35.85v-.01Zm8.09 5.31h-1.48V38.5h2.33l-.86 2.65h.01Zm24.26 0h-1.48l-.86-2.65h2.33v2.65h.01ZM42.21 37c0 .28-.22.5-.5.5H10.72c-.28 0-.5-.22-.5-.5v-1.2l4.76-1.52h23.6c.28 0 .5-.22.5-.5v-15.9l.67-.14c.27-.06.46-.29.46-.57 0-.28-.19-.51-.46-.57l-.67-.14v-5.59c0-.28-.22-.5-.5-.5H14.42l-4.2-1.34V8.02c0-.28.22-.5.5-.5h31c.28 0 .5.22.5.5v29l-.01-.02ZM23.55 21.76h5.38l-2.69 8.39-2.69-8.39Zm1.5 7.96-.72-.8-6.44-7.16h4.62l2.55 7.96h-.01Zm3.3-2.9 1.62-5.07h3.31l.19 1.23-6.06 6.73.93-2.9.01.01Zm2.74-9.59-.43-.09.43-.09a3.818 3.818 0 0 0 2.95-2.94l.09-.43.09.44a3.842 3.842 0 0 0 2.96 2.95l.43.09-.42.09a3.839 3.839 0 0 0-2.96 2.97l-.09.57-.09-.6a3.842 3.842 0 0 0-2.96-2.95v-.01Zm-.21.98c1.1.23 1.96 1.09 2.19 2.16l.06.39H29.9l-1.77-3.21h.1c.08.08.17.14.29.16l2.35.5h.01Zm-2.12 2.54h-5.05l1.45-2.63.32-.58H27l.32.58 1.45 2.63h-.01Zm-6.19 0h-4.72l2.75-3.21h3.74l-1.77 3.21Z" fill="currentColor"/></symbol><symbol fill="none" viewBox="0 0 48 48" id="verified" xmlns="http://www.w3.org/2000/svg"><path fill-rule="evenodd" clip-rule="evenodd" d="M39.87 26.01c-.37-.72-.75-1.47-.75-2.06 0-.62.377-1.385.742-2.123l.018-.037c.54-1.08 1.1-2.2.75-3.26-.35-1.07-1.47-1.64-2.549-2.19h-.001l-.037-.019c-.729-.374-1.48-.76-1.833-1.251-.36-.49-.5-1.33-.63-2.14l-.005-.029c-.198-1.2-.403-2.436-1.325-3.091-.89-.64-2.11-.45-3.29-.26l-.044.007c-.826.128-1.677.26-2.286.063-.62-.2-1.249-.818-1.848-1.408l-.002-.002c-.85-.84-1.73-1.7-2.82-1.7-1.14 0-2.04.9-2.9 1.77l-.043.042c-.566.567-1.151 1.153-1.717 1.338-.579.186-1.407.065-2.212-.053L17.04 9.6l-.018-.003c-1.194-.179-2.427-.364-3.332.293-.9.66-1.1 1.89-1.29 3.08-.13.83-.27 1.68-.64 2.19-.334.472-1.065.847-1.773 1.211l-.037.019c-1.1.56-2.23 1.15-2.59 2.26-.36 1.11.22 2.24.79 3.34.37.72.75 1.47.75 2.06 0 .62-.378 1.385-.742 2.124l-.018.036c-.54 1.08-1.1 2.2-.75 3.26.35 1.07 1.469 1.64 2.548 2.19h.002l.037.019c.728.374 1.479.76 1.833 1.251.36.49.5 1.33.63 2.14l.005.029c.198 1.2.402 2.436 1.325 3.091.89.64 2.11.45 3.29.26l.044-.007c.826-.128 1.677-.26 2.286-.063.62.2 1.248.819 1.848 1.408l.002.002c.85.84 1.73 1.7 2.82 1.7 1.14 0 2.04-.9 2.9-1.77l.042-.042c.567-.567 1.152-1.153 1.718-1.338.578-.186 1.407-.065 2.212.053l.048.007.018.003c1.194.179 2.426.364 3.332-.293.9-.66 1.1-1.89 1.29-3.08.13-.83.27-1.68.64-2.19.334-.472 1.064-.847 1.773-1.211l.037-.019c1.1-.56 2.23-1.15 2.59-2.26.36-1.11-.22-2.24-.79-3.34Zm-.16 3.04c-.226.708-1.148 1.183-2.043 1.646l-.047.024-.002.001c-.83.43-1.679.87-2.168 1.539-.49.672-.648 1.603-.801 2.508l-.02.112-.01.06c-.165 1.018-.32 1.968-.88 2.37-.573.415-1.587.263-2.577.115l-.032-.005-.039-.006c-.928-.138-1.882-.28-2.681-.014-.8.26-1.49.95-2.16 1.62-.72.72-1.47 1.47-2.2 1.47-.671 0-1.362-.672-2.091-1.382l-.03-.028v-.001c-.69-.68-1.4-1.38-2.25-1.649-.34-.11-.7-.15-1.07-.15-.56 0-1.15.09-1.72.18-1.03.16-2 .31-2.55-.09-.584-.426-.756-1.45-.924-2.451l-.005-.029c-.15-.93-.31-1.89-.81-2.57-.51-.69-1.38-1.14-2.23-1.57-.9-.46-1.83-.94-2.06-1.61-.22-.67.22-1.56.69-2.5.43-.85.87-1.74.87-2.61 0-.811-.42-1.642-.832-2.454l-.028-.056-.011-.021c-.467-.914-.947-1.854-.72-2.559.23-.71 1.179-1.199 2.088-1.668l.003-.002.002-.001c.83-.43 1.678-.87 2.168-1.539.49-.672.647-1.603.8-2.508l.02-.112.01-.06c.166-1.018.32-1.968.88-2.37.574-.415 1.588-.263 2.578-.115l.032.005.039.006c.927.138 1.882.28 2.68.014.8-.26 1.49-.95 2.16-1.62.72-.72 1.47-1.47 2.2-1.47.672 0 1.362.672 2.092 1.382l.029.028v.001c.69.68 1.4 1.38 2.25 1.649.85.27 1.83.12 2.79-.03 1.03-.16 2-.31 2.55.09.584.426.757 1.45.925 2.451l.005.029c.15.93.31 1.89.81 2.57.51.69 1.38 1.14 2.23 1.57.9.46 1.83.94 2.06 1.61.22.67-.22 1.56-.69 2.5-.43.85-.87 1.74-.87 2.61 0 .811.42 1.642.832 2.454l.028.056.01.021c.467.914.948 1.855.72 2.559Zm-6.36-9.91c-.25.11-.37.4-.26.66.53 1.24.8 2.55.8 3.9 0 5.45-4.44 9.89-9.89 9.89s-9.89-4.44-9.89-9.89 4.44-9.89 9.89-9.89c1.59 0 3.16.38 4.54 1.1.24.13.55.03.67-.21.13-.24.03-.55-.21-.67-1.52-.8-3.25-1.22-5-1.22-6 0-10.89 4.88-10.89 10.89 0 6.01 4.88 10.89 10.89 10.89 6.01 0 10.89-4.88 10.89-10.89 0-1.49-.3-2.93-.88-4.3a.503.503 0 0 0-.66-.26Zm-14.51 2.04c.19 0 .37.08.5.21l-.02.01 2.98 3.16 8.75-9.75a.677.677 0 0 1 .97-.05l1.36 1.32c.13.11.21.28.22.46a.67.67 0 0 1-.17.49L23.02 28.52c-.17.18-.41.3-.66.3h-.02c-.25 0-.5-.11-.67-.29l-4.66-4.88a.687.687 0 0 1-.19-.49c0-.18.08-.35.21-.47l1.34-1.32c.13-.13.29-.19.47-.19Z" fill="currentColor"/></symbol><symbol fill="none" viewBox="0 0 48 48" id="volunteer" xmlns="http://www.w3.org/2000/svg"><path d="m39.8 27.92-.02-15.48c0-1.33-.95-2.3-2.25-2.3-.61 0-1.15.21-1.54.58l-.07-2.93c0-1.32-1.08-2.4-2.4-2.4-.77 0-1.46.37-1.9.93-.04-1.24-1.13-2.24-2.45-2.24-1.32 0-2.46 1.04-2.46 2.3l-.17 6.99c-.45-.24-1.01-.39-1.66-.39-.65 0-1.27.15-1.75.43-.55.33-.86.81-.86 1.32v4.25l-.02 1.64c-2.47-.27-4.74-1.37-6.38-2.4.03-.08.05-.16.08-.24.67.21 1.31.31 1.88.31 1.07 0 1.95-.32 2.52-.82.77-.68.98-1.65.57-2.62-.2-.46-.56-.78-1.04-.91-1.05-.29-2.61.36-3.87 1.06 1.56-1.42 2.13-2.88 1.9-3.86-.19-.81-.88-1.32-1.86-1.36h-.08c-1.84 0-2.63 2.49-2.97 4.4-.06-2.23-.9-3.45-1.78-3.82-.89-.38-1.87-.02-2.62.97a2.07 2.07 0 0 0-.38 1.74c.21.9.98 1.72 1.78 2.37-1.55-.33-2.86.07-3.66.7-1.04.81-1.44 2.06-1.04 3.18.17.46.5.77.95.9.14.04.3.06.46.06.91 0 2.08-.56 3.13-1.21-1.53 1.41-2.08 2.85-1.86 3.82.19.81.88 1.32 1.86 1.36h.08c1.66 0 2.46-2.03 2.85-3.84-.04 2.49.84 3.84 1.77 4.24.24.1.48.15.72.15.68 0 1.35-.39 1.9-1.12.39-.52.52-1.13.38-1.74-.26-1.09-1.34-2.08-2.3-2.76.02-.03.05-.05.07-.08 1.75 1.1 4.19 2.28 6.91 2.55v.87l-2.4 1.99c-.63.37-.97 1.1-.87 1.9l.54 2.63c.4 2.85 2.19 4.28 3.74 4.99l-.6 9.23c-.02.28.19.51.47.53h.03c.26 0 .48-.2.5-.47l.62-9.58a.513.513 0 0 0-.31-.5c-2.01-.81-3.17-2.27-3.47-4.38l-.53-2.62c-.05-.36.11-.71.45-.92l4.07-3.36c.64.05 1.05.31 1.25.8.37.91-.06 2.31-.71 2.97l-2.01 2.14c-.19.2-.18.52.02.71.2.19.52.18.71-.02l.74-.79c.63-.05 3.07-.07 4.23 2.25.09.18.26.28.45.28a.5.5 0 0 0 .45-.72c-1.05-2.11-2.96-2.65-4.21-2.78l.35-.38c.88-.89 1.46-2.73.91-4.04-.06-.13-.14-.24-.21-.36 3.42.29 5.62 2.07 5.64 2.09.09.08.21.11.32.11a.494.494 0 0 0 .32-.88c-.1-.08-2.31-1.87-5.83-2.28 0 0 .01-.02.02-.03.03-.02.05-.05.08-.08.34-.46.52-1 .52-1.55v-4.02l.21-8.98c0-.73.65-1.32 1.46-1.32.81 0 1.46.59 1.46 1.33l.22 11.56a.5.5 0 0 0 1 0l.28-10.19c0-.77.63-1.4 1.4-1.4.77 0 1.4.63 1.4 1.41l.28 11.52a.5.5 0 0 0 1 0l.08-6.88c0-.76.52-1.3 1.25-1.3s1.25.53 1.25 1.3l.02 15.48c0 3.59-1.84 5.01-2.88 5.52-.04.01-.07.03-.1.05-.33.15-.56.21-.6.22-.27.06-.44.33-.38.6.05.23.26.39.49.39.04 0 .07 0 .11-.01 0 0 .08-.02.19-.06l.57 8.69c.02.26.24.47.5.47h.03c.28-.02.48-.26.47-.53l-.6-9.06c1.29-.74 3.19-2.46 3.19-6.27Zm-25.05-9.67c-.6.87-1.8 1.1-2.68.53-.42-.28-.7-.69-.8-1.18-.09-.49.01-.98.3-1.4.38-.54 1-.84 1.62-.84.37 0 .74.1 1.06.31.42.28.7.69.8 1.18.1.49-.01.98-.3 1.4Zm11.75-2.89v4.04c0 .32-.1.63-.29.91-.02.02-.03.03-.04.05-.05.06-.1.12-.2.22-.43.39-1.02.53-1.63.31a1.679 1.679 0 0 1-.78-.59c-.18-.28-.28-.58-.28-.89v-4.66c0-.15.14-.32.37-.46.32-.19.77-.29 1.24-.29.98 0 1.61.45 1.61.75v.62-.01Z" fill="currentColor"/></symbol><symbol fill="none" viewBox="0 0 48 48" id="watering-plants" xmlns="http://www.w3.org/2000/svg"><path fill-rule="evenodd" clip-rule="evenodd" d="m42.23 16.08-1.3-1.88s.03-.03.04-.06l1.01-2.73c.53-1.44.32-3.06-.56-4.32a4.689 4.689 0 0 0-6.29-1.29l-1-1.45a.505.505 0 0 0-.67-.15l-8.54 5.09c-.23.13-.31.42-.19.66l6.41 12.58-1.35.4c-1.15.35-2.48.1-3.43-.6l-7.58-6.58a.506.506 0 0 0-.71.05c-.18.21-.16.52.05.71l7.6 6.6c.86.64 1.93.98 2.99.98.46 0 .92-.06 1.35-.19l1.46-.43c.07-.02.13-.06.19-.11a2.662 2.662 0 0 0 1.88.78c.49 0 .97-.13 1.39-.38l6.38-3.81a2.72 2.72 0 0 0 1.26-1.75c.16-.73 0-1.5-.42-2.12h.03ZM40.6 7.67c.7.99.86 2.26.44 3.4l-.79 2.15-4.55-6.58c1.65-.98 3.79-.54 4.9 1.04v-.01Zm1.07 10.31c-.1.47-.38.86-.79 1.1l-6.38 3.81c-.41.25-.89.31-1.35.17-.46-.13-.83-.44-1.05-.87L25.84 9.91l7.74-4.62 7.83 11.34c.27.39.37.87.26 1.34v.01Zm-21.04 4.99c0-1.756-1.569-3.432-1.787-3.665l-.017-.018-.006-.007c-.2-.2-.51-.2-.71 0-.07.07-1.81 1.83-1.81 3.69 0 1.19.97 2.17 2.17 2.17s2.17-.97 2.17-2.17h-.01Zm-3.33 0c0-.99.72-2.03 1.17-2.58.49.61 1.17 1.64 1.17 2.58 0 .64-.52 1.17-1.17 1.17-.65 0-1.17-.52-1.17-1.17Zm1.55 18.39c3.28 1.81 6.41 3.45 11.84-.07h-.01a.5.5 0 0 1 .69.15.5.5 0 0 1-.15.69c-2.54 1.65-4.64 2.25-6.48 2.25-2.496 0-4.502-1.109-6.474-2.199l-.056-.031c-3.32-1.85-6.46-3.6-11.98-.02a.5.5 0 0 1-.69-.15.5.5 0 0 1 .15-.69c5.51-3.57 8.95-2.22 12.13-.5-.08-2.09-.5-3.8-1.1-5.21-.62.03-1.24.02-1.85-.02-2.72-.19-5.53-1.18-7.35-3.3-2.07-2.41-2.47-5.84-2.09-8.89.05-.39.37-.69.76-.71 1.67-.09 6.14 0 8.97 3.05 2.85 3.03 2.63 7.5 2.42 9.16 0 .015-.008.033-.015.05-.008.017-.015.035-.015.05.38.86.71 1.83.94 2.92.16-.47.35-.96.59-1.47-.06-.51-.1-1.04-.1-1.56-.01-2.18.62-4.49 2.2-6.07 1.8-1.81 4.52-2.33 6.98-2.21.32.01.57.25.61.56.18 1.33.37 4.92-1.9 7.36-2.13 2.33-5.43 2.53-6.92 2.49-.96 2.1-1.08 3.88-1.1 4.37Zm4.16-9.86-.016.012c-.236.19-2.603 2.092-3.904 4.908.04.31.3.54.61.56h.23c1.22-2.75 3.67-4.67 3.7-4.69.22-.17.26-.48.09-.7a.496.496 0 0 0-.7-.09h-.01Zm-9.55-2.02c1.31 1.23 3.09 3.34 4.09 5.51a.79.79 0 0 1-.72.59h-.11c-.92-2.09-2.66-4.17-3.94-5.36a.496.496 0 0 1-.03-.71c.19-.21.51-.22.71-.03Z" fill="currentColor"/></symbol><symbol fill="none" viewBox="0 0 48 48" id="wishes" xmlns="http://www.w3.org/2000/svg"><path d="M34.47 25.85c.45.86 1.19 1.56 2.17 1.92.45.17.92.24 1.38.24a4.03 4.03 0 0 0 3.78-2.64c.76-2.08-.31-4.39-2.39-5.15-2.08-.76-4.39.31-5.15 2.39-.28.76-.3 1.54-.14 2.27-4.97 2.38-8.66 7.07-11.04 10.96 1.78-6.81 2.02-13.19 2-16.51.22.05.43.12.63.23l4.35 2.36c.07.04.16.06.24.06a.492.492 0 0 0 .49-.58l-.85-4.92c-.14-.82.13-1.65.73-2.23l3.57-3.42c.14-.13.19-.33.13-.51a.514.514 0 0 0-.4-.34l-4.91-.71c-.82-.12-1.53-.63-1.89-1.38l-2.18-4.47a.5.5 0 0 0-.9 0l-2.16 4.45c-.37.75-1.08 1.27-1.91 1.38l-4.95.69c-.19.03-.35.16-.41.34-.06.18 0 .38.13.52l3.58 3.43c.61.58.88 1.43.73 2.26l-.9 4.89a.506.506 0 0 0 .73.53l4.4-2.34c.23-.12.48-.19.73-.24.02 3.7-.29 11.37-2.8 19.09.5-10.62-5-15.5-8.1-17.39.02-.05.05-.1.07-.16.37-1 .32-2.09-.13-3.06a3.948 3.948 0 0 0-2.25-2.07c-2.07-.76-4.37.31-5.13 2.38-.37 1-.32 2.09.13 3.06.45.97 1.25 1.71 2.25 2.07.45.17.91.24 1.37.24 1.26 0 2.46-.61 3.22-1.63 2.87 1.7 7.98 6.16 7.6 16.18-.57-1.3-1.48-2.31-2.48-3.09.09-5.6-2.94-6.87-5.52-6.93l-6.73-.17c-.18 0-.34.08-.44.24-.09.15-.1.34-.02.5l3.21 6.19c.54 1.03 1.35 1.72 2.43 2.04.49.15 1.01.21 1.53.21 2.02 0 4.09-.92 4.91-1.33 1.72 1.34 3.12 3.45 2.6 6.73-.04.27.14.53.42.57h.08c.24 0 .45-.17.49-.42 0-.01 0-.03.02-.04 0 0 .01 0 .01-.02 0-.01.01-.03.02-.04 1.45-3.93 4.51-5.42 7.24-5.92.45.75 2.21 3.48 4.57 4.03.28.06.55.1.83.1.77 0 1.52-.25 2.23-.76l5.57-3.96a.503.503 0 0 0-.05-.85l-5.39-2.87c-2.05-1.09-5.03-1.37-7.68 3.33-1.6.27-3.33.83-4.85 1.94 2.26-3.94 6.04-9.14 11.18-11.67Zm.71-2.89a3.023 3.023 0 0 1 3.87-1.8c.76.28 1.36.83 1.7 1.56.34.73.37 1.55.1 2.31a3.026 3.026 0 0 1-3.87 1.8c-.7-.25-1.25-.75-1.6-1.4.47-.19.95-.38 1.44-.52.26-.08.42-.36.34-.62a.51.51 0 0 0-.62-.34c-.51.15-1 .33-1.48.53-.08-.5-.05-1.02.13-1.52h-.01Zm-13.74-8.32c-.2-.2-.2-.51 0-.71.2-.2.51-.2.71 0 1.29 1.29 3.54 1.29 4.83 0 .2-.2.51-.2.71 0 .2.2.2.51 0 .71-.83.83-1.94 1.29-3.12 1.29-1.18 0-2.29-.46-3.12-1.29h-.01Zm-9.13 5.88v.01c-.68-.35-1.12-.51-1.15-.52a.493.493 0 0 0-.63.32c-.09.26.05.54.32.63.08.03.43.15.97.41-.79.96-2.11 1.38-3.35.93-.75-.28-1.35-.83-1.69-1.55-.34-.73-.37-1.54-.1-2.29a3.011 3.011 0 0 1 3.85-1.79c.75.28 1.35.83 1.69 1.55.34.73.37 1.54.1 2.29l-.01.01Zm0 13c.17.03 2.06.4 3.92 1.51-1.19.53-3.44 1.34-5.19.82-.82-.25-1.42-.75-1.83-1.54l-2.82-5.44 5.88.15c2.93.07 4.41 1.8 4.53 5.23-2.11-1.29-4.26-1.7-4.31-1.7a.501.501 0 0 0-.58.4c-.05.27.13.53.4.58v-.01Zm21.11 2.04s-1.77-.34-4.02-.15c1.73-2.72 3.68-3.49 5.94-2.29l4.68 2.49-4.91 3.49c-.73.52-1.47.69-2.25.51-1.69-.39-3.11-2.28-3.71-3.2 2.17-.22 3.92.11 4.08.14.27.05.53-.12.59-.39a.507.507 0 0 0-.39-.59l-.01-.01Z" fill="currentColor"/></symbol></svg>